<?xml version="1.0" standalone="no"?>
<!DOCTYPE svg PUBLIC "-//W3C//DTD SVG 20010904//EN"
 "http://www.w3.org/TR/2001/REC-SVG-20010904/DTD/svg10.dtd">
<svg version="1.0" xmlns="http://www.w3.org/2000/svg"
 width="360.000000pt" height="118.000000pt" viewBox="0 0 360.000000 118.000000"
 preserveAspectRatio="xMidYMid meet">

<g transform="translate(0.000000,118.000000) scale(0.100000,-0.100000)"
fill="#000000" stroke="none">
<path d="M551 941 l-113 -6 55 -52 c31 -29 64 -53 74 -53 10 0 42 24 71 53 53
53 62 69 40 65 -7 -1 -64 -4 -127 -7z m69 -28 c0 -11 -43 -53 -54 -53 -12 0
-56 40 -56 52 0 4 25 8 55 8 30 0 55 -3 55 -7z"/>
<path d="M485 761 c-51 -24 -88 -64 -115 -123 -28 -64 -51 -63 -115 2 -27 28
-53 50 -57 50 -4 0 -8 -22 -8 -50 0 -49 0 -50 -32 -52 -95 -4 191 -16 402 -16
217 0 516 12 418 16 l-38 2 0 50 c0 28 -4 50 -8 50 -4 0 -30 -23 -57 -50 -60
-61 -92 -65 -110 -11 -39 117 -174 181 -280 132z m165 -26 c32 -17 63 -51 85
-94 14 -28 14 -35 3 -42 -14 -9 -21 -2 -50 50 -55 99 -197 92 -253 -12 -23
-42 -61 -54 -50 -14 10 31 51 84 82 104 48 32 128 35 183 8z m3 -65 c19 -17
37 -39 40 -49 4 -17 0 -20 -34 -19 -21 0 -44 7 -50 14 -6 8 -19 14 -27 14 -13
0 -12 -3 4 -15 18 -13 17 -14 -18 -15 -31 0 -36 3 -31 18 6 16 5 16 -14 0 -21
-19 -43 -24 -43 -9 0 5 12 19 26 30 29 23 74 27 106 10 11 -6 22 -8 25 -5 4 3
-11 13 -31 21 -49 21 -101 5 -125 -36 -9 -16 -24 -29 -34 -29 -16 0 -16 2 -2
30 23 44 71 70 127 70 38 0 54 -6 81 -30z m-403 -71 c0 -5 -7 -9 -15 -9 -9 0
-15 9 -15 21 0 18 2 19 15 9 8 -7 15 -16 15 -21z m660 11 c0 -11 -7 -20 -15
-20 -27 0 -18 30 13 39 1 1 2 -8 2 -19z"/>
<path d="M1144 756 c-3 -7 -4 -87 -2 -177 l3 -164 38 -3 c41 -4 40 -6 39 86
l-1 52 79 0 80 0 0 40 0 39 -76 3 c-76 3 -77 3 -80 31 l-3 27 90 0 89 0 0 40
0 40 -125 0 c-97 0 -127 -3 -131 -14z"/>
<path d="M1569 743 c-45 -113 -119 -315 -119 -323 0 -6 16 -10 35 -10 30 0 37
5 55 40 20 40 21 40 79 40 l59 0 16 -40 c15 -38 18 -40 57 -40 29 0 40 4 37
13 -3 6 -34 87 -69 180 l-64 167 -38 0 c-32 0 -39 -4 -48 -27z m67 -128 c22
-54 19 -65 -21 -65 -19 0 -35 4 -35 10 0 13 31 90 37 90 2 0 11 -16 19 -35z"/>
<path d="M1885 738 c-3 -18 -5 -98 -3 -178 l3 -145 40 0 40 0 3 63 3 62 47 0
c26 0 53 -4 59 -8 10 -6 33 -90 33 -118 0 -2 19 -4 41 -4 l41 0 -6 38 c-12 65
-27 101 -48 116 l-20 14 20 11 c59 31 71 98 28 148 -24 28 -26 28 -150 31
l-125 4 -6 -34z m213 -50 c17 -17 15 -38 -5 -60 -12 -13 -30 -18 -70 -18 l-53
0 0 45 0 45 58 0 c32 0 63 -5 70 -12z"/>
<path d="M2290 590 l0 -180 40 0 40 0 0 70 0 70 75 0 75 0 0 -70 0 -70 40 0
40 0 0 180 0 180 -40 0 -40 0 0 -70 0 -70 -75 0 -75 0 0 70 0 70 -40 0 -40 0
0 -180z"/>
<path d="M2815 728 c-38 -95 -115 -301 -115 -309 0 -5 16 -9 35 -9 30 0 37 5
55 40 20 40 20 40 80 40 l60 0 16 -40 c15 -37 19 -40 56 -40 28 0 39 4 36 13
-3 6 -33 87 -68 180 l-63 167 -37 0 c-35 0 -39 -3 -55 -42z m73 -117 c17 -56
16 -61 -23 -61 -19 0 -35 3 -35 7 0 16 33 93 40 93 4 0 12 -17 18 -39z"/>
<path d="M3140 590 l0 -180 35 0 35 0 0 110 c0 61 4 110 8 110 5 0 42 -49 82
-110 69 -103 77 -110 107 -110 l33 0 0 180 0 180 -40 0 -39 0 -3 -91 -3 -91
-63 91 -63 91 -44 0 -45 0 0 -180z"/>
<path d="M190 500 c0 -27 4 -50 8 -50 10 0 92 83 92 93 0 14 -24 7 -47 -15
l-23 -21 0 21 c0 13 -6 22 -15 22 -11 0 -15 -12 -15 -50z"/>
<path d="M360 536 c0 -49 64 -130 125 -157 92 -42 204 -5 255 85 29 50 38 86
22 86 -5 0 -15 -18 -22 -41 -8 -24 -30 -54 -53 -75 -98 -83 -241 -50 -291 68
-20 47 -36 62 -36 34z"/>
<path d="M463 505 c0 -27 2 -38 4 -22 2 15 2 37 0 50 -2 12 -4 0 -4 -28z"/>
<path d="M583 485 c0 -38 2 -53 4 -32 2 20 2 52 0 70 -2 17 -4 1 -4 -38z"/>
<path d="M840 542 c0 -10 83 -92 93 -92 4 0 7 23 7 50 0 38 -4 50 -15 50 -9 0
-15 -9 -15 -22 l0 -21 -23 21 c-23 22 -47 29 -47 14z"/>
<path d="M502 485 c0 -51 1 -55 8 -27 4 19 4 46 0 60 -6 21 -8 13 -8 -33z"/>
<path d="M623 485 c0 -33 2 -45 4 -27 2 18 2 45 0 60 -2 15 -4 0 -4 -33z"/>
<path d="M663 500 c0 -25 2 -35 4 -22 2 12 2 32 0 45 -2 12 -4 2 -4 -23z"/>
<path d="M540 463 c0 -24 2 -43 4 -43 8 0 12 60 4 72 -4 8 -8 -4 -8 -29z"/>
<path d="M492 255 l-57 -55 130 0 130 0 -57 55 c-31 30 -64 55 -73 55 -9 0
-42 -25 -73 -55z m105 3 c13 -12 23 -25 23 -30 0 -4 -25 -8 -55 -8 -30 0 -55
3 -55 7 0 11 43 53 54 53 5 0 20 -10 33 -22z"/>
</g>
</svg>
