<?xml version="1.0" encoding="UTF-8"?>
<svg version="1.1" xmlns="http://www.w3.org/2000/svg" width="500" height="500">
<path d="M0 0 C2.74609375 1.6875 2.74609375 1.6875 5.4375 4 C10.16762209 7.79004751 14.77975435 10.59315322 20.25 13.1875 C26.03652438 15.94883189 31.13393409 18.74219233 36 23 C36 23.66 36 24.32 36 25 C36.66 25 37.32 25 38 25 C45.37190259 38.70061143 47.91751568 49.39243728 44.1015625 64.65625 C41.00081288 74.06845453 35.46890546 81.59380454 28 88 C27.47019531 88.46921875 26.94039063 88.9384375 26.39453125 89.421875 C16.66014043 97.20938765 4.10381507 99.66188451 -8.0625 98.77734375 C-23.76745227 96.67108062 -36.44273945 88.58264766 -46.3203125 76.3671875 C-48.5691061 73.23774746 -49 71.98748584 -49 68 C-43.06 68 -37.12 68 -31 68 C-30.67 68.99 -30.34 69.98 -30 71 C-29.34 71 -28.68 71 -28 71 C-28 71.66 -28 72.32 -28 73 C-27.42507812 73.2784375 -26.85015625 73.556875 -26.2578125 73.84375 C-24 75 -24 75 -21.9921875 76.21875 C-12.71453262 81.83327177 -4.11797455 82.9553261 6.3515625 80.43359375 C11.65487034 78.88162239 14.92141208 76.68067691 19 73 C19.66 73 20.32 73 21 73 C21.27585937 72.42636719 21.55171875 71.85273438 21.8359375 71.26171875 C23 69 23 69 24.2890625 67.01953125 C29.01522291 59.21169315 29.30018916 50.86653695 28 42 C26.02138702 35.07049641 22.13023526 29.79547769 16 26 C10.75722436 23.33310198 5.40258783 21.81292558 -0.3125 20.5 C-4.75108035 19.45596375 -7.79782929 18.42301007 -11 15 C-12.61469184 11.77061633 -12.58079278 8.49143247 -12 5 C-8.53765159 -0.03614314 -5.92533289 -0.60772645 0 0 Z " fill="#2172AA" transform="translate(85,199)"/>
<path d="M0 0 C4.8306346 4.15076751 9.91749337 8.77836672 12.19921875 14.890625 C11.70421875 16.375625 11.70421875 16.375625 11.19921875 17.890625 C8.97032379 17.94491473 6.74104404 17.98354838 4.51171875 18.015625 C3.27035156 18.03882813 2.02898437 18.06203125 0.75 18.0859375 C-4.81940131 17.77958979 -7.93025305 16.00908133 -12.11328125 12.453125 C-20.49403273 5.85843531 -28.13368628 4.67714182 -38.80078125 5.890625 C-48.1174197 8.35389604 -54.72070224 12.75715998 -59.67578125 21.015625 C-63.24454979 30.13581127 -62.40747258 38.46029073 -58.87109375 47.4453125 C-58.51789062 48.25226563 -58.1646875 49.05921875 -57.80078125 49.890625 C-57.50945313 50.61507812 -57.218125 51.33953125 -56.91796875 52.0859375 C-55.5118193 54.35740969 -54.23854879 54.8733611 -51.80078125 55.890625 C-50.72828125 56.509375 -49.65578125 57.128125 -48.55078125 57.765625 C-43.83807155 60.17533128 -38.77322715 61.22197551 -33.61230469 62.23193359 C-28.33302582 63.37898859 -25.58590687 65.21479632 -21.80078125 68.890625 C-20.36774061 71.75670629 -20.4943397 73.70363283 -20.80078125 76.890625 C-23.95867599 82.46957237 -23.95867599 82.46957237 -26.80078125 83.890625 C-30.28343735 84.44784998 -32.73378543 84.65497397 -35.6875 82.5390625 C-37.01563124 81.31599641 -38.33138843 80.07940289 -39.63671875 78.83203125 C-44.53180328 74.4405926 -50.38958869 71.41522877 -56.42578125 68.890625 C-65.61041636 64.95435281 -73.05591601 58.33150254 -77.11328125 49.140625 C-81.02871306 38.29537037 -80.41916485 26.87503478 -76.11328125 16.203125 C-69.9256989 3.62322411 -59.77612601 -4.28133974 -46.80078125 -9.109375 C-30.71977971 -14.32483496 -13.30778865 -10.02260233 0 0 Z " fill="#5FFBDC" transform="translate(113.80078125,168.109375)"/>
<path d="M0 0 C4.22832926 0.03695873 5.86665448 0.26854205 8.93066406 3.25634766 C11.21138106 6.64319684 13.18724733 10.07526955 15.1015625 13.67578125 C15.79662858 14.90535153 16.49581736 16.1326009 17.19921875 17.35742188 C18.48342097 19.60478534 19.73479769 21.86106969 20.97119141 24.13598633 C22.47895546 26.95738811 22.47895546 26.95738811 24.4765625 29.86328125 C24.8065625 20.29328125 25.1365625 10.72328125 25.4765625 0.86328125 C28.7765625 0.86328125 32.0765625 0.86328125 35.4765625 0.86328125 C37.090655 2.47737375 36.60390568 4.22804533 36.60595703 6.45898438 C36.60910919 7.436698 36.61226135 8.41441162 36.61550903 9.42175293 C36.6134848 10.48526978 36.61146057 11.54878662 36.609375 12.64453125 C36.61033173 13.72835083 36.61128845 14.81217041 36.61227417 15.92883301 C36.61295615 18.22550515 36.61110061 20.5221792 36.60693359 22.81884766 C36.60158562 26.34802553 36.606878 29.87707612 36.61328125 33.40625 C36.61262047 35.6315107 36.61133932 37.85677132 36.609375 40.08203125 C36.61139923 41.1455481 36.61342346 42.20906494 36.61550903 43.30480957 C36.61078079 44.77138 36.61078079 44.77138 36.60595703 46.26757812 C36.60516144 47.13282104 36.60436584 47.99806396 36.60354614 48.88952637 C36.4765625 50.86328125 36.4765625 50.86328125 35.4765625 51.86328125 C33.55078125 52.1015625 33.55078125 52.1015625 31.1640625 52.17578125 C29.99423828 52.23185547 29.99423828 52.23185547 28.80078125 52.2890625 C25.62125351 51.70659439 24.62159883 50.24204511 22.4765625 47.86328125 C21.47915558 46.40189125 20.53285108 44.90449733 19.63671875 43.37890625 C19.13076172 42.52554688 18.62480469 41.6721875 18.10351562 40.79296875 C17.58724609 39.90867187 17.07097656 39.024375 16.5390625 38.11328125 C15.50980824 36.36808031 14.47986815 34.62328364 13.44921875 32.87890625 C12.99812744 32.10836914 12.54703613 31.33783203 12.08227539 30.54394531 C9.93118295 26.95279509 7.695199 23.41309965 5.4765625 19.86328125 C5.1465625 30.09328125 4.8165625 40.32328125 4.4765625 50.86328125 C0.78238049 52.09467525 -1.7290636 51.50760889 -5.5234375 50.86328125 C-5.69125958 43.90339192 -5.85122376 36.94335444 -6.00561523 29.9831543 C-6.05912394 27.61332061 -6.11445981 25.24352746 -6.17163086 22.8737793 C-6.25329508 19.47583768 -6.32847742 16.07780643 -6.40234375 12.6796875 C-6.42937881 11.6130336 -6.45641388 10.5463797 -6.48426819 9.44740295 C-6.50436447 8.46646164 -6.52446075 7.48552032 -6.54516602 6.47485352 C-6.56515152 5.60659439 -6.58513702 4.73833527 -6.60572815 3.84376526 C-6.43992203 -0.14668052 -3.44346949 0.34965543 0 0 Z " fill="#44BFEB" transform="translate(235.5234375,239.13671875)"/>
<path d="M0 0 C3.13523765 1.90573269 5.2698847 4.24857705 7.3125 7.3125 C6.33156046 9.76484885 5.62546172 11.0934268 3.4375 12.625 C0.87387955 13.45440662 -0.21481679 13.34943167 -2.6875 12.3125 C-3.70769573 11.3331121 -4.70899805 10.33354551 -5.6875 9.3125 C-10.61563192 7.66978936 -14.26664194 7.64228393 -19 9.875 C-22.83167216 13.35023754 -23.45437806 16.44915446 -23.8671875 21.51953125 C-24.03125466 26.86994376 -23.84471858 32.59168378 -20.38671875 36.953125 C-17.2714081 39.44537352 -13.56368935 39.41468425 -9.6875 39.3125 C-6.68594249 38.44603917 -6.68594249 38.44603917 -4.6875 36.3125 C-3.32769119 33.23688754 -3.32769119 33.23688754 -2.6875 30.3125 C-3.38617188 30.32410156 -4.08484375 30.33570313 -4.8046875 30.34765625 C-5.71476562 30.35667969 -6.62484375 30.36570312 -7.5625 30.375 C-8.46742188 30.38660156 -9.37234375 30.39820313 -10.3046875 30.41015625 C-12.6875 30.3125 -12.6875 30.3125 -14.6875 29.3125 C-14.78515625 23.16015625 -14.78515625 23.16015625 -14.6875 21.3125 C-13.06549485 19.69049485 -11.26726969 20.1825925 -9.03125 20.1796875 C-8.09152344 20.17839844 -7.15179688 20.17710937 -6.18359375 20.17578125 C-5.19488281 20.17964844 -4.20617187 20.18351562 -3.1875 20.1875 C-1.70443359 20.18169922 -1.70443359 20.18169922 -0.19140625 20.17578125 C1.21818359 20.17771484 1.21818359 20.17771484 2.65625 20.1796875 C3.52443359 20.18081543 4.39261719 20.18194336 5.28710938 20.18310547 C7.3125 20.3125 7.3125 20.3125 8.3125 21.3125 C8.40008003 23.31214982 8.41946576 25.3148611 8.41015625 27.31640625 C8.40693359 28.53134766 8.40371094 29.74628906 8.40039062 30.99804688 C8.38782227 32.91713867 8.38782227 32.91713867 8.375 34.875 C8.37048828 36.15826172 8.36597656 37.44152344 8.36132812 38.76367188 C8.34949545 41.94666022 8.33301068 45.12955762 8.3125 48.3125 C4.6825 48.3125 1.0525 48.3125 -2.6875 48.3125 C-3.0175 47.3225 -3.3475 46.3325 -3.6875 45.3125 C-4.450625 45.9725 -5.21375 46.6325 -6 47.3125 C-10.56351521 50.33326657 -15.42470503 50.03762942 -20.6875 49.3125 C-26.11379019 47.76344081 -29.72838515 44.98349773 -32.72265625 40.21484375 C-36.92425577 31.93071838 -36.84094549 21.76924888 -34.5 12.9375 C-32.48851533 7.12654429 -29.60157424 3.24173727 -24.3125 -0.0625 C-17.15608091 -3.30057556 -7.13378643 -3.2791326 0 0 Z " fill="#43BFED" transform="translate(206.6875,241.6875)"/>
<path d="M0 0 C4.93121654 2.99470875 8.42853023 7.09047098 10.8125 12.3125 C12.87324467 21.67952123 12.58306208 29.62685313 9.3125 38.75 C5.84079005 43.89770785 1.45555966 47.55861142 -4.5 49.4375 C-12.35221487 50.24429866 -20.08153491 50.52749208 -26.5 45.4375 C-31.75052421 40.57546749 -34.45908712 35.68360502 -34.80078125 28.4140625 C-35.03523849 11.26351568 -35.03523849 11.26351568 -29.6953125 5.484375 C-21.6405349 -1.99289024 -10.46650242 -4.71701173 0 0 Z M-21.25 11.9375 C-24.14991636 15.41739963 -23.69919433 19.50248565 -23.75 23.8125 C-23.77578125 25.11960937 -23.8015625 26.42671875 -23.828125 27.7734375 C-23.41419621 32.39564237 -21.92416796 34.66712547 -19.0859375 38.1953125 C-16.03332424 40.58627559 -12.26371533 40.55677267 -8.5 40.4375 C-5.23331621 39.0172027 -2.7815137 37.17531644 -0.5 34.4375 C0.69667203 30.84748391 0.70538881 27.8470161 0.75 24.0625 C0.77578125 22.75539063 0.8015625 21.44828125 0.828125 20.1015625 C0.41419621 15.47935763 -1.07583204 13.20787453 -3.9140625 9.6796875 C-9.73261531 5.12229884 -16.29640727 7.69156337 -21.25 11.9375 Z " fill="#44BFEC" transform="translate(320.5,241.5625)"/>
<path d="M0 0 C0.969375 -0.020625 1.93875 -0.04125 2.9375 -0.0625 C10.27562174 -0.10195227 17.35305701 0.41775131 23 5.5 C25.18094453 9.4983983 26.00143117 12.84046791 25.05859375 17.37109375 C23.86391194 21.09167425 23.01043933 22.87013817 19.8125 25.25 C19.049375 25.58 18.28625 25.91 17.5 26.25 C18.09296875 26.87261719 18.6859375 27.49523437 19.296875 28.13671875 C22.17938646 32.21005498 23.36047605 36.309052 24.75 41.0625 C25.018125 41.94615234 25.28625 42.82980469 25.5625 43.74023438 C26.21848601 45.90733101 26.86393477 48.07698959 27.5 50.25 C24.48131566 51.75934217 21.82702771 51.42510672 18.5 51.25 C14.68395472 48.70596981 14.14921995 45.99304261 12.875 41.8125 C12.6584375 41.13123047 12.441875 40.44996094 12.21875 39.74804688 C11.6379609 37.91784418 11.06842208 36.0840813 10.5 34.25 C10.17 33.26 9.84 32.27 9.5 31.25 C6.53 31.25 3.56 31.25 0.5 31.25 C0.17 37.52 -0.16 43.79 -0.5 50.25 C-9.5 51.25 -9.5 51.25 -11.5 50.25 C-11.52526838 43.28996553 -11.54283222 36.3299428 -11.55493164 29.36987305 C-11.55997341 27.00007688 -11.56680665 24.63028385 -11.57543945 22.26049805 C-11.5875119 18.86245961 -11.59322971 15.46446215 -11.59765625 12.06640625 C-11.60281754 10.99975235 -11.60797882 9.93309845 -11.61329651 8.8341217 C-11.61337204 7.85318039 -11.61344757 6.87223907 -11.61352539 5.86157227 C-11.615746 4.99331314 -11.61796661 4.12505402 -11.62025452 3.23048401 C-11.31044644 -1.87177703 -3.85600202 0.0198763 0 0 Z M-0.5 10.25 C-0.57226502 12.10287502 -0.5838122 13.95833878 -0.5625 15.8125 C-0.55347656 16.82441406 -0.54445313 17.83632813 -0.53515625 18.87890625 C-0.52355469 19.66136719 -0.51195312 20.44382812 -0.5 21.25 C1.43681161 21.33107583 3.3745934 21.38922475 5.3125 21.4375 C6.39144531 21.47230469 7.47039062 21.50710938 8.58203125 21.54296875 C11.47590264 21.48680292 11.47590264 21.48680292 13.39453125 19.9609375 C14.83432815 18.09027577 14.83432815 18.09027577 14.375 14.6875 C13.84366067 10.99557606 13.84366067 10.99557606 10.5 9.25 C8.01929185 8.9710553 8.01929185 8.9710553 5.375 9.0625 C4.48554688 9.06894531 3.59609375 9.07539063 2.6796875 9.08203125 C0.52263471 9.01046952 0.52263471 9.01046952 -0.5 10.25 Z " fill="#41C1EF" transform="translate(357.5,239.75)"/>
<path d="M0 0 C1.79244141 0.01740234 1.79244141 0.01740234 3.62109375 0.03515625 C5.41740234 0.04869141 5.41740234 0.04869141 7.25 0.0625 C8.17683594 0.07410156 9.10367187 0.08570313 10.05859375 0.09765625 C12.16101308 6.09236127 14.26028683 12.08816115 16.35742188 18.0847168 C17.07057217 20.12272821 17.78443076 22.16049193 18.49902344 24.19799805 C19.52857722 27.13394704 20.55554442 30.07079002 21.58203125 33.0078125 C21.89981537 33.91225601 22.21759949 34.81669952 22.54501343 35.74855042 C24.20229229 40.49888825 25.73448617 45.2435588 27.05859375 50.09765625 C23.42859375 50.42765625 19.79859375 50.75765625 16.05859375 51.09765625 C14.40859375 47.46765625 12.75859375 43.83765625 11.05859375 40.09765625 C5.44859375 39.76765625 -0.16140625 39.43765625 -5.94140625 39.09765625 C-6.93140625 42.72765625 -7.92140625 46.35765625 -8.94140625 50.09765625 C-13.89140625 50.59265625 -13.89140625 50.59265625 -18.94140625 51.09765625 C-20.06628154 46.59815511 -20.06628154 46.59815511 -18.86157227 43.20288086 C-18.60122696 42.45207748 -18.34088165 41.70127411 -18.07264709 40.92771912 C-17.78312668 40.12657181 -17.49360626 39.3254245 -17.1953125 38.5 C-16.90534897 37.6693251 -16.61538544 36.83865021 -16.31663513 35.98280334 C-15.3890383 33.32995586 -14.44734517 30.68240693 -13.50390625 28.03515625 C-12.5661248 25.38367225 -11.6314144 22.7311873 -10.70188904 20.07679749 C-10.12291965 18.42554973 -9.53881658 16.77609127 -8.94911194 15.12864685 C-7.3945183 10.72040562 -7.3945183 10.72040562 -6.94140625 6.09765625 C-6.28140625 6.09765625 -5.62140625 6.09765625 -4.94140625 6.09765625 C-4.79703125 5.29328125 -4.65265625 4.48890625 -4.50390625 3.66015625 C-3.72762395 0.1237591 -3.72762395 0.1237591 0 0 Z M2.05859375 13.09765625 C1.38494714 15.1787431 0.71992577 17.26262335 0.05859375 19.34765625 C-0.31265625 20.5078125 -0.68390625 21.66796875 -1.06640625 22.86328125 C-2.1155022 26.18274905 -2.1155022 26.18274905 -1.94140625 30.09765625 C1.68859375 30.09765625 5.31859375 30.09765625 9.05859375 30.09765625 C6.77337034 21.53284877 6.77337034 21.53284877 4.05859375 13.09765625 C3.39859375 13.09765625 2.73859375 13.09765625 2.05859375 13.09765625 Z " fill="#44C0EC" transform="translate(411.94140625,239.90234375)"/>
<path d="M0 0 C3.49865482 1.16621827 3.59670511 1.65298281 5.25 4.75 C7.05580486 7.85423856 8.42723466 9.46209702 11.5625 11.1875 C16.22698653 14.12177569 16.83034419 18.85022512 18.078125 23.94140625 C18.9837195 26.94598463 20.05814521 28.5945001 22 31 C22 31.66 22 32.32 22 33 C22.59296875 33.29132813 23.1859375 33.58265625 23.796875 33.8828125 C25.64607762 34.82052872 27.45407703 35.83889059 29.25 36.875 C33.9627097 39.28470628 39.0275541 40.33135051 44.18847656 41.34130859 C49.46775543 42.48836359 52.21487438 44.32417132 56 48 C57.43304064 50.86608129 57.30644155 52.81300783 57 56 C53.84210526 61.57894737 53.84210526 61.57894737 51 63 C47.5173439 63.55722498 45.06699582 63.76434897 42.11328125 61.6484375 C40.78515001 60.42537141 39.46939282 59.18877789 38.1640625 57.94140625 C33.26897797 53.5499676 27.41119256 50.52460377 21.375 48 C12.19036489 44.06372781 4.74486524 37.44087754 0.6875 28.25 C-2.79380367 18.60722582 -2.08911916 9.89310147 0 0 Z " fill="#2696BE" transform="translate(36,189)"/>
<path d="M0 0 C2.74609375 1.6875 2.74609375 1.6875 5.4375 4 C10.16762209 7.79004751 14.77975435 10.59315322 20.25 13.1875 C26.03652438 15.94883189 31.13393409 18.74219233 36 23 C36 23.66 36 24.32 36 25 C36.66 25 37.32 25 38 25 C46.34258029 40.50460676 47.4130233 51.0046067 43 68 C42.01 68 41.02 68 40 68 C39.938125 66.700625 39.87625 65.40125 39.8125 64.0625 C39.13362869 57.9235637 36.69778385 52.25232418 31.89453125 48.2421875 C30.23819716 46.90861376 30.23819716 46.90861376 29 47 C28.85304687 46.3709375 28.70609375 45.741875 28.5546875 45.09375 C26.33403862 36.61954968 22.99183868 30.70249659 15.625 25.75 C10.553989 22.8941795 5.28938734 21.5849915 -0.37841797 20.46777344 C-4.8763621 19.53166994 -7.68854066 18.19341482 -11 15 C-12.61469184 11.77061633 -12.58079278 8.49143247 -12 5 C-8.53765159 -0.03614314 -5.92533289 -0.60772645 0 0 Z " fill="#3FBCED" transform="translate(85,199)"/>
<path d="M0 0 C1.99917257 3.30632387 2.24636958 4.8816113 1.625 8.6875 C-1.53289474 14.26644737 -1.53289474 14.26644737 -4.375 15.6875 C-7.8576561 16.24472498 -10.30800418 16.45184897 -13.26171875 14.3359375 C-14.58984999 13.11287141 -15.90560718 11.87627789 -17.2109375 10.62890625 C-22.77463652 5.63764558 -29.57713932 2.47820441 -36.390625 -0.4453125 C-38.89419042 -1.5393903 -41.17703262 -2.68175001 -43.375 -4.3125 C-43.375 -5.3025 -43.375 -6.2925 -43.375 -7.3125 C-10.36671696 -10.09390862 -10.36671696 -10.09390862 0 0 Z " fill="#3FBDEE" transform="translate(91.375,236.3125)"/>
<path d="M0 0 C3.63 0 7.26 0 11 0 C11 16.5 11 33 11 50 C7.3980828 50.9004793 4.67101871 51.16315639 1 51 C0 50 0 50 -0.12025452 47.98155212 C-0.11803391 47.09552811 -0.11581329 46.20950409 -0.11352539 45.29663086 C-0.11344986 44.29566879 -0.11337433 43.29470673 -0.11329651 42.26341248 C-0.10813522 41.1748848 -0.10297394 40.08635712 -0.09765625 38.96484375 C-0.0962413 37.85645645 -0.09482635 36.74806915 -0.09336853 35.60609436 C-0.08775033 32.04986931 -0.07519475 28.49370617 -0.0625 24.9375 C-0.05748734 22.53320403 -0.05292403 20.12890708 -0.04882812 17.72460938 C-0.03777499 11.81638223 -0.02049816 5.90820163 0 0 Z " fill="#48BEE8" transform="translate(146,240)"/>
<path d="M0 0 C6.29657781 4.57932932 9.20953175 9.23007448 10.8125 16.875 C11 20 11 20 10 22 C10.66 22 11.32 22 12 22 C10.54362142 28.31097386 6.53448771 33.46551229 2 38 C-0.06526175 37.93499891 -2.12840126 37.79717323 -4.1875 37.625 C-5.87939453 37.48964844 -5.87939453 37.48964844 -7.60546875 37.3515625 C-10.76904012 37.0239199 -13.8701975 36.56041987 -17 36 C-16.01 35.505 -16.01 35.505 -15 35 C-14.7834375 33.824375 -14.7834375 33.824375 -14.5625 32.625 C-13.94345706 29.73613295 -13.32042378 28.76352207 -11 27 C-10.34 27 -9.68 27 -9 27 C-8.72285156 26.4328125 -8.44570312 25.865625 -8.16015625 25.28125 C-7.39683884 23.78031611 -6.5925844 22.29939748 -5.74609375 20.84375 C-2.46251835 14.96271944 -1.38042814 10.09414598 -1.140625 3.37109375 C-1 1 -1 1 0 0 Z " fill="#2B8ABB" transform="translate(115,245)"/>
<path d="M0 0 C12.17005359 3.1921452 20.80942988 10.63273919 27.9375 20.75 C29 23 29 23 28 26 C25.77110504 26.05428973 23.54182529 26.09292338 21.3125 26.125 C20.07113281 26.14820313 18.82976562 26.17140625 17.55078125 26.1953125 C11.98137994 25.88896479 8.8705282 24.11845633 4.6875 20.5625 C0.60312696 17.27307205 -3.00762228 15.54309857 -8 14 C-7.67 13.34 -7.34 12.68 -7 12 C-6.34 12 -5.68 12 -5 12 C-4.731875 11.360625 -4.46375 10.72125 -4.1875 10.0625 C-3 8 -3 8 0 7 C0 4.69 0 2.38 0 0 Z " fill="#87F9D2" transform="translate(97,160)"/>
<path d="M0 0 C0.969375 -0.020625 1.93875 -0.04125 2.9375 -0.0625 C10.27562174 -0.10195227 17.35305701 0.41775131 23 5.5 C25.18094453 9.4983983 26.00143117 12.84046791 25.05859375 17.37109375 C23.86391194 21.09167425 23.01043933 22.87013817 19.8125 25.25 C19.049375 25.58 18.28625 25.91 17.5 26.25 C18.139375 26.971875 18.77875 27.69375 19.4375 28.4375 C21.48673535 31.23191184 22.11332946 32.86663274 22.5 36.25 C18.48371537 34.18758357 16.374605 32.39386369 14.5 28.25 C14.3125 25.4375 14.3125 25.4375 14.5 23.25 C15.82 23.25 17.14 23.25 18.5 23.25 C18.5 22.26 18.5 21.27 18.5 20.25 C19.16 19.92 19.82 19.59 20.5 19.25 C19.51 16.61 18.52 13.97 17.5 11.25 C17.17 11.25 16.84 11.25 16.5 11.25 C16.17 13.56 15.84 15.87 15.5 18.25 C15.17 18.25 14.84 18.25 14.5 18.25 C14.21125 17.115625 13.9225 15.98125 13.625 14.8125 C13.25375 13.636875 12.8825 12.46125 12.5 11.25 C9.97524538 9.98762269 8.18799534 10.15143596 5.375 10.1875 C3.76625 10.208125 2.1575 10.22875 0.5 10.25 C0.17 13.88 -0.16 17.51 -0.5 21.25 C-0.83 21.25 -1.16 21.25 -1.5 21.25 C-1.5 16.96 -1.5 12.67 -1.5 8.25 C-0.18 7.92 1.14 7.59 2.5 7.25 C2.5 5.27 2.5 3.29 2.5 1.25 C-0.8 1.25 -4.1 1.25 -7.5 1.25 C-7.5 3.23 -7.5 5.21 -7.5 7.25 C-8.16 7.25 -8.82 7.25 -9.5 7.25 C-9.5 21.44 -9.5 35.63 -9.5 50.25 C-10.16 50.25 -10.82 50.25 -11.5 50.25 C-11.52526838 43.28996553 -11.54283222 36.3299428 -11.55493164 29.36987305 C-11.55997341 27.00007688 -11.56680665 24.63028385 -11.57543945 22.26049805 C-11.5875119 18.86245961 -11.59322971 15.46446215 -11.59765625 12.06640625 C-11.60281754 10.99975235 -11.60797882 9.93309845 -11.61329651 8.8341217 C-11.61337204 7.85318039 -11.61344757 6.87223907 -11.61352539 5.86157227 C-11.615746 4.99331314 -11.61796661 4.12505402 -11.62025452 3.23048401 C-11.31044644 -1.87177703 -3.85600202 0.0198763 0 0 Z " fill="#43C0EC" transform="translate(357.5,239.75)"/>
<path d="M0 0 C1.71123047 -0.00386719 1.71123047 -0.00386719 3.45703125 -0.0078125 C6.1875 0.125 6.1875 0.125 7.1875 1.125 C7.35546875 3.0859375 7.35546875 3.0859375 7.375 5.5 C7.38917969 6.29148438 7.40335938 7.08296875 7.41796875 7.8984375 C7.1875 10.125 7.1875 10.125 5.1875 13.125 C4.20910156 13.04121094 3.23070313 12.95742187 2.22265625 12.87109375 C-4.92205864 12.31609623 -11.71186469 11.93917962 -18.8125 13.125 C-20.16644439 13.31409838 -21.52059804 13.50170729 -22.875 13.6875 C-23.844375 13.831875 -24.81375 13.97625 -25.8125 14.125 C-25.52052098 10.71857814 -24.86754603 9.19299804 -22.6875 6.5 C-15.90030476 0.89318654 -8.53915222 -0.01951806 0 0 Z " fill="#26F9E9" transform="translate(77.8125,158.875)"/>
<path d="M0 0 C2.49985464 1.08929409 2.80937609 1.97901311 3.8203125 4.47265625 C6.90765505 11.09856834 10.14278988 15.39933473 17.0703125 18.16015625 C17.89789063 18.44503906 18.72546875 18.72992188 19.578125 19.0234375 C21.81871596 19.80357726 23.84968677 20.74189982 25.9453125 21.84765625 C25.4709375 22.30140625 24.9965625 22.75515625 24.5078125 23.22265625 C22.85503442 24.78023829 22.85503442 24.78023829 21.9453125 26.84765625 C20.95789063 26.22890625 19.97046875 25.61015625 18.953125 24.97265625 C14.41156276 22.37617175 9.81091337 21.45136633 4.73046875 20.42578125 C0.20008197 19.42095359 -2.71036885 18.07839427 -6.0546875 14.84765625 C-7.66613776 11.62475573 -7.65318738 8.33225557 -7.0546875 4.84765625 C-3.3126903 -0.24561772 -3.3126903 -0.24561772 0 0 Z " fill="#3A91BA" transform="translate(80.0546875,199.15234375)"/>
<path d="M0 0 C0.66 0.33 1.32 0.66 2 1 C0.7934375 1.8971875 0.7934375 1.8971875 -0.4375 2.8125 C-3.22327984 4.80947276 -3.22327984 4.80947276 -4 8 C-4.99 8 -5.98 8 -7 8 C-6.79375 8.7425 -6.5875 9.485 -6.375 10.25 C-5.95591249 13.32330841 -6.38050989 14.42786866 -8 17 C-6.00907507 18.19129294 -6.00907507 18.19129294 -3.5625 17.9375 C-1 18 -1 18 2 20 C1.79503906 20.72445312 1.59007813 21.44890625 1.37890625 22.1953125 C0.00945777 27.10960129 -1.31532637 31.93341513 -2 37 C-7.32347258 35.59084549 -9.79792982 32.19928632 -13 28 C-13.66 27.175 -14.32 26.35 -15 25.5 C-16.14879472 22.62801321 -16.02230626 20.92885747 -14.98828125 18.0234375 C-11.38900947 10.6541775 -6.43448804 4.99001113 0 0 Z " fill="#70F8DB" transform="translate(53,166)"/>
<path d="M0 0 C5.94 0 11.88 0 18 0 C18.33 0.99 18.66 1.98 19 3 C19.66 3 20.32 3 21 3 C20.67 8.28 20.34 13.56 20 19 C11.48068807 17.82040296 7.94110572 14.93221219 2.6796875 8.34765625 C0.41477489 5.23538122 0 3.97899802 0 0 Z " fill="#179CCA" transform="translate(36,267)"/>
<path d="M0 0 C0.66 0 1.32 0 2 0 C2.33 0.99 2.66 1.98 3 3 C5.25760857 3.78670551 5.25760857 3.78670551 8 4 C9.69719127 3.05273046 11.36935236 2.05771739 13 1 C13.66 1.33 14.32 1.66 15 2 C15 2.66 15 3.32 15 4 C16.98 4.66 18.96 5.32 21 6 C21 6.66 21 7.32 21 8 C21.53625 8.268125 22.0725 8.53625 22.625 8.8125 C25.41666667 10.20833333 28.20833333 11.60416667 31 13 C31 13.66 31 14.32 31 15 C24.4 15 17.8 15 11 15 C10.67 15.66 10.34 16.32 10 17 C8.69979989 15.61211198 7.4101807 14.21430742 6.125 12.8125 C5.40570313 12.03519531 4.68640625 11.25789062 3.9453125 10.45703125 C1.23802044 7.03758004 0 4.37106104 0 0 Z " fill="#2889B8" transform="translate(37,214)"/>
<path d="M0 0 C4.29567373 0.10739184 6.36507937 1.13503933 9.3125 4.0625 C13.94222821 8.44808239 19.32027955 10.72688878 25.09692383 13.24633789 C25.81388428 13.56207764 26.53084473 13.87781738 27.26953125 14.203125 C27.91510986 14.47801758 28.56068848 14.75291016 29.22583008 15.03613281 C31.19038946 16.10343437 32.49903756 17.35585459 34 19 C28.90361685 21.54819157 20.94897082 20.73607062 15.54296875 19.38671875 C9.51504695 16.68782674 4.73911308 11.62623577 1.8984375 5.703125 C1.18765219 3.82984036 0.5820088 1.91720547 0 0 Z " fill="#4AD4EE" transform="translate(81,199)"/>
<path d="M0 0 C3.68879299 1.80247839 7.22650083 3.8276212 10.78125 5.87890625 C12.86918118 6.93389964 14.71628221 7.53806617 17 8 C17 8.66 17 9.32 17 10 C17.66 10 18.32 10 19 10 C18.67 10.99 18.34 11.98 18 13 C15.453125 14.16796875 15.453125 14.16796875 12.25 15.1875 C11.20328125 15.53167969 10.1565625 15.87585938 9.078125 16.23046875 C6.22909507 16.94272623 3.91669884 17.15663753 1 17 C1 17.66 1 18.32 1 19 C-3.43458973 17.6062718 -5.87378374 15.39417765 -9 12 C-6.66666667 12 -4.33333333 12 -2 12 C-1.93941406 11.30132812 -1.87882812 10.60265625 -1.81640625 9.8828125 C-1.73261719 8.97273438 -1.64882813 8.06265625 -1.5625 7.125 C-1.48128906 6.22007812 -1.40007813 5.31515625 -1.31640625 4.3828125 C-1 2 -1 2 0 0 Z " fill="#2883B8" transform="translate(57,272)"/>
<path d="M0 0 C2.05078125 0.03255208 4.1015625 0.06510417 6.15234375 0.09765625 C6.15234375 2.07765625 6.15234375 4.05765625 6.15234375 6.09765625 C7.80234375 5.76765625 9.45234375 5.43765625 11.15234375 5.09765625 C11.34810311 9.30648257 11.04602137 12.31030101 9.15234375 16.09765625 C8.49234375 16.75765625 7.83234375 17.41765625 7.15234375 18.09765625 C5.69171525 15.45026709 5.15234375 14.20317291 5.15234375 11.09765625 C3.83234375 11.09765625 2.51234375 11.09765625 1.15234375 11.09765625 C1.15234375 11.75765625 1.15234375 12.41765625 1.15234375 13.09765625 C0.16234375 13.09765625 -0.82765625 13.09765625 -1.84765625 13.09765625 C-3.30943355 8.71232435 -4.29700861 5.57747263 -2.84765625 1.09765625 C-1.84765625 0.09765625 -1.84765625 0.09765625 0 0 Z " fill="#40C0F1" transform="translate(411.84765625,240.90234375)"/>
<path d="M0 0 C0.8125 2.625 0.8125 2.625 1 6 C-0.64978844 8.73246211 -1.53364975 10.17860333 -4 12 C-7.8125 12.875 -7.8125 12.875 -11 13 C-10.67 12.01 -10.34 11.02 -10 10 C-9.93259135 8.43881572 -9.91485544 6.8749748 -9.9375 5.3125 C-9.94652344 4.50425781 -9.95554687 3.69601563 -9.96484375 2.86328125 C-9.97644531 2.24839844 -9.98804687 1.63351563 -10 1 C-12.04159095 0.9727384 -14.08328963 0.95348655 -16.125 0.9375 C-17.83042969 0.92009766 -17.83042969 0.92009766 -19.5703125 0.90234375 C-22.8129156 0.994673 -25.81932612 1.38610094 -29 2 C-22.33526922 -4.66473078 -8.12027286 -2.88720813 0 0 Z " fill="#51F7E3" transform="translate(94,159)"/>
<path d="M0 0 C2 1.8125 2 1.8125 4 4 C4 4.99 4 5.98 4 7 C2.68 7 1.36 7 0 7 C0 6.34 0 5.68 0 5 C-2.15811388 5.94729537 -2.15811388 5.94729537 -4 8 C-2.68 8.33 -1.36 8.66 0 9 C-0.33 9.66 -0.66 10.32 -1 11 C-5.00442582 12.15995361 -8.97772966 12.16548689 -13.125 12.1875 C-14.95417969 12.20876953 -14.95417969 12.20876953 -16.8203125 12.23046875 C-20 12 -20 12 -23 10 C-23.1875 7.375 -23.1875 7.375 -23 5 C-22.01 4.67 -21.02 4.34 -20 4 C-19.67 5.65 -19.34 7.3 -19 9 C-17.35 9 -15.7 9 -14 9 C-15.32 8.34 -16.64 7.68 -18 7 C-16.25001842 5.25001842 -13.63094056 5.49818371 -11.25 5.1875 C-6.45942911 4.44039906 -3.41648702 3.6605218 0 0 Z " fill="#3FC1F0" transform="translate(321,277)"/>
<path d="M0 0 C0.99 0.33 1.98 0.66 3 1 C3.6875 3.0625 3.6875 3.0625 4 5 C5.65 5 7.3 5 9 5 C9 6.65 9 8.3 9 10 C9.33 9.67 9.66 9.34 10 9 C10.66 9 11.32 9 12 9 C12.33 7.68 12.66 6.36 13 5 C14.32 9.29 15.64 13.58 17 18 C13.98131566 19.50934217 11.32702771 19.17510672 8 19 C4.17261 16.44840667 3.60884195 13.6905918 2.3125 9.5 C1.97508789 8.46552734 1.97508789 8.46552734 1.63085938 7.41015625 C0 2.32425437 0 2.32425437 0 0 Z " fill="#46BFE9" transform="translate(368,272)"/>
<path d="M0 0 C5.85851352 0.80631109 9.13459865 3.66606516 13 8 C16.10067104 13.15409557 16.31550147 18.11063931 16 24 C14 21 14 21 14 19 C13.566875 19.639375 13.13375 20.27875 12.6875 20.9375 C11 23 11 23 8 24 C7.67 26.31 7.34 28.62 7 31 C6.34 31 5.68 31 5 31 C4.95101563 30.04738281 4.90203125 29.09476562 4.8515625 28.11328125 C4.77679688 26.85902344 4.70203125 25.60476563 4.625 24.3125 C4.52058594 22.45044922 4.52058594 22.45044922 4.4140625 20.55078125 C4.03577906 17.30682228 3.38020024 14.93432815 2 12 C5.25543229 12.34879632 6.01873107 13.02133261 8.25 15.5625 C8.8275 16.366875 9.405 17.17125 10 18 C10.66 17.34 11.32 16.68 12 16 C11.91997483 11.75866625 11.43619943 9.56082784 8.8125 6.1875 C5.90290844 3.92448434 3.54963786 2.9080469 0 2 C0 1.34 0 0.68 0 0 Z " fill="#50BAE1" transform="translate(316,241)"/>
<path d="M0 0 C0.87454834 0.00523682 1.74909668 0.01047363 2.65014648 0.01586914 C3.59438477 0.0190918 4.53862305 0.02231445 5.51147461 0.02563477 C6.50469727 0.03401367 7.49791992 0.04239258 8.52124023 0.05102539 C9.51833008 0.05553711 10.51541992 0.06004883 11.54272461 0.06469727 C14.01478872 0.07652532 16.48673541 0.0930069 18.95874023 0.11352539 C18.95874023 0.44352539 18.95874023 0.77352539 18.95874023 1.11352539 C13.01874023 1.11352539 7.07874023 1.11352539 0.95874023 1.11352539 C0.95874023 3.09352539 0.95874023 5.07352539 0.95874023 7.11352539 C0.29874023 7.11352539 -0.36125977 7.11352539 -1.04125977 7.11352539 C-1.04125977 21.30352539 -1.04125977 35.49352539 -1.04125977 50.11352539 C-1.70125977 50.11352539 -2.36125977 50.11352539 -3.04125977 50.11352539 C-3.06652814 43.15349092 -3.08409199 36.19346819 -3.09619141 29.23339844 C-3.10123318 26.86360227 -3.10806642 24.49380924 -3.11669922 22.12402344 C-3.12877166 18.725985 -3.13448947 15.32798754 -3.13891602 11.92993164 C-3.1440773 10.86327774 -3.14923859 9.79662384 -3.15455627 8.69764709 C-3.15463181 7.71670578 -3.15470734 6.73576447 -3.15478516 5.72509766 C-3.15700577 4.85683853 -3.15922638 3.98857941 -3.16151428 3.0940094 C-2.99591667 0.36676528 -2.72786066 0.15171094 0 0 Z " fill="#50B9DF" transform="translate(349.041259765625,239.886474609375)"/>
<path d="M0 0 C8.40572181 2.85194133 14.78873543 9.85058669 19.35546875 17.2734375 C20 19 20 19 19 22 C16.77110504 22.05428973 14.54182529 22.09292338 12.3125 22.125 C11.07113281 22.14820313 9.82976562 22.17140625 8.55078125 22.1953125 C3.16598611 21.89911915 -0.11786938 20.14538998 -4.3125 16.875 C-5.00988281 16.33617187 -5.70726563 15.79734375 -6.42578125 15.2421875 C-6.94527344 14.83226562 -7.46476562 14.42234375 -8 14 C-7.01 13.34 -6.02 12.68 -5 12 C-4.31164062 12.6496875 -4.31164062 12.6496875 -3.609375 13.3125 C-2.68898438 14.1478125 -2.68898438 14.1478125 -1.75 15 C-1.14671875 15.556875 -0.5434375 16.11375 0.078125 16.6875 C2.162653 18.37597443 2.162653 18.37597443 6 18 C6 18.66 6 19.32 6 20 C6.515625 19.814375 7.03125 19.62875 7.5625 19.4375 C10.85908739 18.84580483 13.72245735 19.432733 17 20 C17 19.01 17 18.02 17 17 C16.34 17 15.68 17 15 17 C14.4740625 15.700625 14.4740625 15.700625 13.9375 14.375 C11.0227746 9.29773639 7.05307545 6.22310878 2.0625 3.25 C1.381875 2.8375 0.70125 2.425 0 2 C0 1.34 0 0.68 0 0 Z " fill="#9FF8E4" transform="translate(106,164)"/>
<path d="M0 0 C0.66 0.33 1.32 0.66 2 1 C0.35 2.65 -1.3 4.3 -3 6 C-2.31035156 6.04898438 -1.62070312 6.09796875 -0.91015625 6.1484375 C5.23409469 6.63728051 11.0149077 7.52825599 17 9 C13.5506258 10.074805 10.47147907 10.03716147 6.875 9.9375 C1.00009218 9.87775517 -4.31520015 10.5627594 -10 12 C-9.2592182 7.14014578 -7.75806717 5.23368571 -4 2 C-1.8125 0.625 -1.8125 0.625 0 0 Z " fill="#33F9E1" transform="translate(62,161)"/>
<path d="M0 0 C0.99 0.33 1.98 0.66 3 1 C1.7625 1.6496875 1.7625 1.6496875 0.5 2.3125 C-0.7375 3.1478125 -0.7375 3.1478125 -2 4 C-2 4.99 -2 5.98 -2 7 C-0.02 6.67 1.96 6.34 4 6 C4.66 7.65 5.32 9.3 6 11 C5.01 11 4.02 11 3 11 C3 12.65 3 14.3 3 16 C1.35 16.33 -0.3 16.66 -2 17 C-4.64539908 14.35460092 -5.01859438 12.85356927 -5.5 9.0625 C-5.39242195 5.46535879 -4.98707503 4.98449003 -2.5 2 C-1.675 1.34 -0.85 0.68 0 0 Z " fill="#2F8FBC" transform="translate(78,199)"/>
<path d="M0 0 C2.71366031 2.204849 3.8914986 3.37611697 4.5 6.875 C3.87878163 10.7576148 2.42173781 12.93721394 0 16 C-3.26047629 17.63023814 -5.37801035 17.4673535 -9 17 C-11.97690778 14.96632491 -14.47508189 12.56334077 -17 10 C-17.57234375 9.42894531 -18.1446875 8.85789063 -18.734375 8.26953125 C-19.15203125 7.85058594 -19.5696875 7.43164062 -20 7 C-17.69 7.33 -15.38 7.66 -13 8 C-12.67 9.32 -12.34 10.64 -12 12 C-6.52378307 13.94679922 -6.52378307 13.94679922 -1 13 C-1 12.34 -1 11.68 -1 11 C-0.01 11 0.98 11 2 11 C1.34 7.37 0.68 3.74 0 0 Z " fill="#53C1EB" transform="translate(89,235)"/>
<path d="M0 0 C0.66 0.33 1.32 0.66 2 1 C1 3 1 3 -0.9375 3.875 C-3.42001234 5.22909764 -3.96871397 6.42178493 -5 9 C-5.66 9 -6.32 9 -7 9 C-7.79822989 14.60661472 -8.1553461 20.02795173 -8.125 25.6875 C-8.12886719 26.42033203 -8.13273438 27.15316406 -8.13671875 27.90820312 C-8.12982553 31.73049616 -7.92320283 35.28520765 -7 39 C-6.34 39 -5.68 39 -5 39 C-3.375 40.3125 -3.375 40.3125 -2 42 C-2 42.99 -2 43.98 -2 45 C-1.01 45 -0.02 45 1 45 C1 45.66 1 46.32 1 47 C-3.50007691 45.84283737 -5.47919683 43.72545171 -7.9296875 39.97265625 C-12.35290163 31.82038203 -12.13721729 21.39552434 -9.8125 12.625 C-7.88587225 6.94555705 -5.03302413 3.35534942 0 0 Z " fill="#59B8DC" transform="translate(182,242)"/>
<path d="M0 0 C3.47678093 1.15892698 3.66265531 1.69306249 5.375 4.75 C7.55204629 8.42914206 9.85288607 11.12263869 13 14 C8.16743695 13.58578031 6.17320782 11.53586014 3 8 C3.33 10.64 3.66 13.28 4 16 C3.34 16 2.68 16 2 16 C1.67 15.34 1.34 14.68 1 14 C0.01 13.34 -0.98 12.68 -2 12 C-1.34 8.04 -0.68 4.08 0 0 Z " fill="#24A5C1" transform="translate(36,189)"/>
<path d="M0 0 C4.29567373 0.10739184 6.36507937 1.13503933 9.3125 4.0625 C13.94222821 8.44808239 19.32027955 10.72688878 25.09692383 13.24633789 C25.81388428 13.56207764 26.53084473 13.87781738 27.26953125 14.203125 C27.91510986 14.47801758 28.56068848 14.75291016 29.22583008 15.03613281 C31.19038946 16.10343437 32.49903756 17.35585459 34 19 C29.4072178 18.41118177 25.29388752 17.16398383 20.953125 15.62109375 C19.0239249 14.89898456 19.0239249 14.89898456 17 15 C15.375 13.625 15.375 13.625 14 12 C14 11.34 14 10.68 14 10 C13.01 10 12.02 10 11 10 C11 9.01 11 8.02 11 7 C10.484375 6.7525 9.96875 6.505 9.4375 6.25 C6.22815849 4.60418384 3.12414336 2.8023904 0 1 C0 0.67 0 0.34 0 0 Z " fill="#62D3E7" transform="translate(81,199)"/>
<path d="M0 0 C0.70125 0.7425 1.4025 1.485 2.125 2.25 C7.8942401 7.76840358 13.40828937 10.01955375 21 12 C20.525625 12.61875 20.05125 13.2375 19.5625 13.875 C17.97582559 15.90705546 17.97582559 15.90705546 17 18 C15.66144944 17.21718695 14.32926356 16.42348123 13 15.625 C12.2575 15.18414062 11.515 14.74328125 10.75 14.2890625 C10.1725 13.86367187 9.595 13.43828125 9 13 C9 12.34 9 11.68 9 11 C8.01 11 7.02 11 6 11 C5.34 9.35 4.68 7.7 4 6 C3.34 6 2.68 6 2 6 C1.34 4.02 0.68 2.04 0 0 Z " fill="#309AC1" transform="translate(85,208)"/>
<path d="M0 0 C2.55682534 7.67047602 -0.98381214 16.8708287 -4 24 C-4.99 23.67 -5.98 23.34 -7 23 C-5.48526781 15.01323028 -2.83197448 7.59877122 0 0 Z " fill="#4EBCE4" transform="translate(399,267)"/>
<path d="M0 0 C4.91375208 0.43356636 7.52729957 2.60622458 11 6 C11.875 8.3125 11.875 8.3125 12 10 C6.64220183 14.01834862 6.64220183 14.01834862 3.8125 13.9375 C1.77254797 12.8823524 0.54977434 11.68453733 -1 10 C-1.99 9.34 -2.98 8.68 -4 8 C-2.68 8 -1.36 8 0 8 C0 7.34 0 6.68 0 6 C0.66 6 1.32 6 2 6 C2.33 7.98 2.66 9.96 3 12 C3.66 11.34 4.32 10.68 5 10 C7.625 9.875 7.625 9.875 10 10 C8.34524223 6.39846838 6.91074922 4.7025523 3.3125 3.1875 C2.219375 2.795625 1.12625 2.40375 0 2 C0 1.34 0 0.68 0 0 Z " fill="#54B8DC" transform="translate(202,241)"/>
<path d="M0 0 C3.3 0 6.6 0 10 0 C10 2.97 10 5.94 10 9 C4.98709528 7.56774151 3.01961382 5.05490999 0 1 C0 0.67 0 0.34 0 0 Z " fill="#4AE8DD" transform="translate(40,193)"/>
<path d="M0 0 C0.68449219 0.65355469 1.36898438 1.30710937 2.07421875 1.98046875 C5.64721482 4.44674241 7.51842611 4.44979674 11.8125 4.3125 C13.03839844 4.27769531 14.26429688 4.24289062 15.52734375 4.20703125 C19.40097485 3.97609486 23.16926869 3.61291701 27 3 C20.625541 8.05560541 13.8822127 7.66916249 6 7 C2.91732887 5.97839119 0.75641402 4.76410497 -2 3 C-1.34 2.67 -0.68 2.34 0 2 C0 1.34 0 0.68 0 0 Z " fill="#58B9DB" transform="translate(296,284)"/>
<path d="M0 0 C5.09639817 0.01539697 9.9383069 0.25931153 14.9609375 1.1328125 C14.9609375 4.54380418 14.46948344 7.76369564 13.9609375 11.1328125 C13.6309375 11.1328125 13.3009375 11.1328125 12.9609375 11.1328125 C12.6721875 9.9984375 12.3834375 8.8640625 12.0859375 7.6953125 C11.7146875 6.5196875 11.3434375 5.3440625 10.9609375 4.1328125 C8.43618288 2.87043519 6.64893284 3.03424846 3.8359375 3.0703125 C2.2271875 3.0909375 0.6184375 3.1115625 -1.0390625 3.1328125 C-1.3690625 6.7628125 -1.6990625 10.3928125 -2.0390625 14.1328125 C-2.3690625 14.1328125 -2.6990625 14.1328125 -3.0390625 14.1328125 C-3.06592188 11.98704613 -3.08539338 9.84118605 -3.1015625 7.6953125 C-3.11316406 6.50035156 -3.12476563 5.30539063 -3.13671875 4.07421875 C-3.00795719 0.19592058 -3.00795719 0.19592058 0 0 Z " fill="#5FC0DC" transform="translate(359.0390625,246.8671875)"/>
<path d="M0 0 C0.6708712 1.6232687 1.33657029 3.24867578 2 4.875 C2.556875 6.23238281 2.556875 6.23238281 3.125 7.6171875 C4 10 4 10 4 12 C2.68 12 1.36 12 0 12 C0 12.66 0 13.32 0 14 C-0.66 14 -1.32 14 -2 14 C-1.625 12.0625 -1.625 12.0625 -1 10 C-0.34 9.67 0.32 9.34 1 9 C0.67 7.68 0.34 6.36 0 5 C-2.31 5.66 -4.62 6.32 -7 7 C-6.75 4.625 -6.75 4.625 -6 2 C-3.84898936 0.54286376 -2.59713506 0 0 0 Z " fill="#2994BA" transform="translate(82,200)"/>
<path d="M0 0 C5.94 0 11.88 0 18 0 C18.33 0.99 18.66 1.98 19 3 C19.66 3 20.32 3 21 3 C21 3.66 21 4.32 21 5 C20.01 5 19.02 5 18 5 C17.67 4.34 17.34 3.68 17 3 C12.38 3 7.76 3 3 3 C3.33 4.65 3.66 6.3 4 8 C2 6.25 2 6.25 0 4 C0 2.68 0 1.36 0 0 Z " fill="#409CBC" transform="translate(36,267)"/>
<path d="M0 0 C4.29 0 8.58 0 13 0 C16.22265625 8.3984375 16.22265625 8.3984375 17 11 C16.67 11.66 16.34 12.32 16 13 C14 11 14 11 13.875 8.375 C13.91625 7.59125 13.9575 6.8075 14 6 C12.35 6.33 10.7 6.66 9 7 C7.875 3.25 7.875 3.25 9 1 C3.8306511 1.40556131 3.8306511 1.40556131 -1 3 C-0.67 2.01 -0.34 1.02 0 0 Z " fill="#4EB9DF" transform="translate(409,240)"/>
<path d="M0 0 C0.33 0.66 0.66 1.32 1 2 C-0.3125 3.5 -0.3125 3.5 -2 5 C-2.99 5 -3.98 5 -5 5 C-5.33 6.32 -5.66 7.64 -6 9 C-8.97 8.505 -8.97 8.505 -12 8 C-12 7.34 -12 6.68 -12 6 C-13.65 5.67 -15.3 5.34 -17 5 C-12.90679703 2.59451579 -9.11170418 2.59312087 -4.4609375 2.34375 C-1.82596806 2.22762611 -1.82596806 2.22762611 0 0 Z " fill="#41BFE8" transform="translate(371,258)"/>
<path d="M0 0 C0.99 0 1.98 0 3 0 C4.16236052 3.48708155 4.2744736 4.57485221 3 8 C1.14903481 11.01235511 -0.77502953 12.54505643 -4 14 C-9.93417691 15.02132056 -15.99471618 14.9872904 -22 15 C-19.17011667 12.17011667 -17.13168606 12.76597072 -13.1875 12.6875 C-7.41592499 12.55023426 -7.41592499 12.55023426 -2.6875 9.6875 C-0.45638263 6.134239 0 4.14537352 0 0 Z " fill="#71F5DC" transform="translate(94,159)"/>
<path d="M0 0 C1.32 0.33 2.64 0.66 4 1 C3 4 3 4 0.9375 5.1875 C0.298125 5.455625 -0.34125 5.72375 -1 6 C-0.360625 6.721875 0.27875 7.44375 0.9375 8.1875 C2.98673535 10.98191184 3.61332946 12.61663274 4 16 C-0.01628463 13.93758357 -2.125395 12.14386369 -4 8 C-4.1875 5.1875 -4.1875 5.1875 -4 3 C-2.68 3 -1.36 3 0 3 C0 2.01 0 1.02 0 0 Z " fill="#4FBAE5" transform="translate(376,260)"/>
<path d="M0 0 C8.41694045 2.85574765 14.84222972 9.83415073 19.2578125 17.37109375 C20 19 20 19 20 21 C19.34 21 18.68 21 18 21 C17.67 20.01 17.34 19.02 17 18 C16.54625 17.54625 16.0925 17.0925 15.625 16.625 C14 15 14 15 12.6875 12.625 C9.99906486 8.44298978 6.37834775 5.8090302 2.125 3.3125 C1.42375 2.879375 0.7225 2.44625 0 2 C0 1.34 0 0.68 0 0 Z " fill="#A1F1D5" transform="translate(106,164)"/>
<path d="M0 0 C2 3 2 3 2 5 C2.66 5.33 3.32 5.66 4 6 C3.34 6.66 2.68 7.32 2 8 C1.34 7.67 0.68 7.34 0 7 C0.33 9.64 0.66 12.28 1 15 C-0.75 15.75 -0.75 15.75 -3 16 C-5.25 14.0625 -5.25 14.0625 -7 12 C-4.525 12.495 -4.525 12.495 -2 13 C-1.93941406 12.22914063 -1.87882812 11.45828125 -1.81640625 10.6640625 C-1.73261719 9.66117187 -1.64882813 8.65828125 -1.5625 7.625 C-1.48128906 6.62726563 -1.40007813 5.62953125 -1.31640625 4.6015625 C-1 2 -1 2 0 0 Z " fill="#208ABD" transform="translate(57,272)"/>
<path d="M0 0 C1.65 0 3.3 0 5 0 C4.360625 0.86625 3.72125 1.7325 3.0625 2.625 C-0.20060892 8.19419296 0.17439993 14.71288244 0 21 C-0.66 20.67 -1.32 20.34 -2 20 C-2.21133202 12.95559921 -2.07965362 6.75887425 0 0 Z " fill="#53B8DB" transform="translate(297,251)"/>
<path d="M0 0 C0.66 0 1.32 0 2 0 C2.03738281 0.77085937 2.07476562 1.54171875 2.11328125 2.3359375 C2.17902344 3.33882812 2.24476563 4.34171875 2.3125 5.375 C2.37050781 6.37273437 2.42851562 7.37046875 2.48828125 8.3984375 C2.65714844 9.25695312 2.82601563 10.11546875 3 11 C3.99 11.66 4.98 12.32 6 13 C3.6875 13.6875 3.6875 13.6875 1 14 C-0.68359375 12.8046875 -0.68359375 12.8046875 -2 11 C-2.109375 8.80859375 -2.109375 8.80859375 -1.75 6.4375 C-1.64171875 5.65246094 -1.5334375 4.86742187 -1.421875 4.05859375 C-1 2 -1 2 0 0 Z " fill="#3CC4EE" transform="translate(406,250)"/>
<path d="M0 0 C4.75 1.875 4.75 1.875 7 3 C7.33333333 4.33333333 7.66666667 5.66666667 8 7 C8.66 7.33 9.32 7.66 10 8 C11.89214361 10.9903808 12.22803321 13.24687078 12.125 16.75 C12.10695313 17.54921875 12.08890625 18.3484375 12.0703125 19.171875 C12.03550781 20.07679688 12.03550781 20.07679688 12 21 C11.67 21 11.34 21 11 21 C10.77957031 20.05640625 10.77957031 20.05640625 10.5546875 19.09375 C8.8399441 12.55013151 6.28425504 8.16736054 2 3 C1.34 2.01 0.68 1.02 0 0 Z " fill="#57B7E3" transform="translate(103,225)"/>
<path d="M0 0 C1.3921875 0.495 1.3921875 0.495 2.8125 1 C5.92029291 2.14967004 5.92029291 2.14967004 9 2 C9.66 2.66 10.32 3.32 11 4 C8.41246844 5.29376578 6.45041015 5.16832397 3.5625 5.1875 C2.59441406 5.20167969 1.62632812 5.21585937 0.62890625 5.23046875 C-2 5 -2 5 -5 3 C-4.360625 2.690625 -3.72125 2.38125 -3.0625 2.0625 C-1.06389179 1.1654837 -1.06389179 1.1654837 0 0 Z " fill="#52BBE1" transform="translate(188,286)"/>
<path d="M0 0 C1.125 6.625 1.125 6.625 0 10 C-2.49361571 8.79618552 -4.68143083 7.54571278 -7 6 C-6.67 5.34 -6.34 4.68 -6 4 C-5.34 4.33 -4.68 4.66 -4 5 C-3.87625 4.360625 -3.7525 3.72125 -3.625 3.0625 C-3.41875 2.381875 -3.2125 1.70125 -3 1 C-1 0 -1 0 0 0 Z " fill="#218CBA" transform="translate(50,215)"/>
<path d="M0 0 C0.66 0.33 1.32 0.66 2 1 C0.88096454 2.81618856 -0.24541284 4.62785526 -1.375 6.4375 C-2.00148438 7.44683594 -2.62796875 8.45617187 -3.2734375 9.49609375 C-5 12 -5 12 -7 13 C-6.34 10.69 -5.68 8.38 -5 6 C-5.66 5.67 -6.32 5.34 -7 5 C-6.360625 4.896875 -5.72125 4.79375 -5.0625 4.6875 C-4.381875 4.460625 -3.70125 4.23375 -3 4 C-2.67 3.01 -2.34 2.02 -2 1 C-1.34 0.67 -0.68 0.34 0 0 Z " fill="#3C88B0" transform="translate(125,268)"/>
<path d="M0 0 C0.99 0.33 1.98 0.66 3 1 C1.7625 1.4640625 1.7625 1.4640625 0.5 1.9375 C-2.16673466 3.69271143 -2.16673466 3.69271143 -2.40234375 6.0625 C-2.46515311 10.30562119 -2.11880941 13.26442839 0 17 C-3.875 15.25 -3.875 15.25 -5 13 C-5.50856628 7.82957619 -5.50856628 7.82957619 -5 5 C-2.5 2 -2.5 2 0 0 Z " fill="#4C8EA9" transform="translate(78,199)"/>
<path d="M0 0 C0.66 0 1.32 0 2 0 C2.391875 1.093125 2.78375 2.18625 3.1875 3.3125 C4.75938927 6.9484121 6.26188645 8.43520828 10 10 C13.19395026 10.71401232 13.19395026 10.71401232 16 11 C16 11.33 16 11.66 16 12 C11.70606672 12.6261986 8.35170427 12.88559935 4.62109375 10.44140625 C2.65776754 8.69583715 0.79509085 6.91737225 -1 5 C-0.67 3.35 -0.34 1.7 0 0 Z " fill="#53B6DD" transform="translate(181,271)"/>
<path d="M0 0 C0.33 0.66 0.66 1.32 1 2 C1.84304687 1.75443359 1.84304687 1.75443359 2.703125 1.50390625 C5.13059056 0.97135003 7.26889681 0.90101319 9.75 0.9375 C10.54921875 0.94652344 11.3484375 0.95554688 12.171875 0.96484375 C12.77515625 0.97644531 13.3784375 0.98804688 14 1 C14.33 1.66 14.66 2.32 15 3 C14.43152344 3.06058594 13.86304687 3.12117187 13.27734375 3.18359375 C8.50218963 3.70176573 3.7507695 4.29243859 -1 5 C-0.67 3.35 -0.34 1.7 0 0 Z " fill="#4AFDE1" transform="translate(53,168)"/>
<path d="M0 0 C0.65226562 0.40992188 1.30453125 0.81984375 1.9765625 1.2421875 C6.54706851 4.05999209 10.75719663 6.6203149 16 8 C15.67 8.66 15.34 9.32 15 10 C12.03 9.505 12.03 9.505 9 9 C9 8.34 9 7.68 9 7 C6.36 6.34 3.72 5.68 1 5 C0.67 3.35 0.34 1.7 0 0 Z " fill="#3D83AD" transform="translate(58,272)"/>
<path d="M0 0 C0.99 0.33 1.98 0.66 3 1 C3 1.66 3 2.32 3 3 C6.54518884 1.60240095 6.54518884 1.60240095 10 0 C8.84826645 2.46800047 7.95216435 4.04783565 6 6 C3.8359375 5.9765625 3.8359375 5.9765625 1.375 5.625 C0.55773437 5.51414062 -0.25953125 5.40328125 -1.1015625 5.2890625 C-1.72804688 5.19367188 -2.35453125 5.09828125 -3 5 C-2.505 4.54625 -2.01 4.0925 -1.5 3.625 C0.22609337 2.12364481 0.22609337 2.12364481 0 0 Z " fill="#4ABCE5" transform="translate(318,281)"/>
<path d="M0 0 C0.99 0.495 0.99 0.495 2 1 C2 1.66 2 2.32 2 3 C2.53625 3.268125 3.0725 3.53625 3.625 3.8125 C7.8125 5.90625 7.8125 5.90625 12 8 C12 8.33 12 8.66 12 9 C8.89931623 8.98699923 5.99616073 8.83403765 3 8 C1.04423344 5.2145143 0 3.42208464 0 0 Z " fill="#3887AF" transform="translate(56,219)"/>
<path d="M0 0 C1.32 0.33 2.64 0.66 4 1 C4.33 2.98 4.66 4.96 5 7 C5.66 7 6.32 7 7 7 C7.69710731 8.28650706 8.38242876 9.57940665 9.0625 10.875 C9.44535156 11.59429687 9.82820312 12.31359375 10.22265625 13.0546875 C10.60744141 14.01761719 10.60744141 14.01761719 11 15 C10.67 15.66 10.34 16.32 10 17 C8.32972219 14.35642999 6.6643902 11.70978008 5 9.0625 C4.52304688 8.30775391 4.04609375 7.55300781 3.5546875 6.77539062 C3.10351562 6.05673828 2.65234375 5.33808594 2.1875 4.59765625 C1.76855469 3.93258057 1.34960938 3.26750488 0.91796875 2.58227539 C0 1 0 1 0 0 Z " fill="#56BADD" transform="translate(246,266)"/>
<path d="M0 0 C0.66 0.33 1.32 0.66 2 1 C2 2.32 2 3.64 2 5 C0 6.75 0 6.75 -2 8 C-2.33 7.01 -2.66 6.02 -3 5 C-5.01508358 4.26676204 -5.01508358 4.26676204 -7 4 C-5.35 3.67 -3.7 3.34 -2 3 C-2 2.34 -2 1.68 -2 1 C-1.34 0.67 -0.68 0.34 0 0 Z " fill="#3CC3ED" transform="translate(294,249)"/>
<path d="M0 0 C1.78198477 3.30710686 2.96157065 6.68214999 4.125 10.25 C4.47820313 11.32765625 4.83140625 12.4053125 5.1953125 13.515625 C5.46085937 14.33546875 5.72640625 15.1553125 6 16 C5.34 16 4.68 16 4 16 C3.896875 15.360625 3.79375 14.72125 3.6875 14.0625 C3.460625 13.381875 3.23375 12.70125 3 12 C2.01 11.67 1.02 11.34 0 11 C-0.19491452 9.54263913 -0.38069358 8.08405407 -0.5625 6.625 C-0.66691406 5.81289062 -0.77132812 5.00078125 -0.87890625 4.1640625 C-1 2 -1 2 0 0 Z " fill="#4098AE" transform="translate(50,203)"/>
<path d="M0 0 C0.33 0.66 0.66 1.32 1 2 C0.67 2.66 0.34 3.32 0 4 C0.99 4.33 1.98 4.66 3 5 C1.7260411 7.03833424 0.38938077 9.03852126 -1 11 C-1.66 11 -2.32 11 -3 11 C-3 10.34 -3 9.68 -3 9 C-2.34 9 -1.68 9 -1 9 C-1.57344937 6.13275314 -1.8614515 5.1385485 -4 3 C-2.68 2.01 -1.36 1.02 0 0 Z " fill="#4FB9E2" transform="translate(202,278)"/>
<path d="M0 0 C2.07384637 2.28176413 2.98397191 3.44323483 3.07421875 6.578125 C2.94660156 7.45984375 2.81898437 8.3415625 2.6875 9.25 C2.56761719 10.14203125 2.44773437 11.0340625 2.32421875 11.953125 C2.21722656 12.62859375 2.11023437 13.3040625 2 14 C1.34 13.67 0.68 13.34 0 13 C0.33 10.03 0.66 7.06 1 4 C-0.32 4.33 -1.64 4.66 -3 5 C-3.33 4.34 -3.66 3.68 -4 3 C-2.68 2.01 -1.36 1.02 0 0 Z " fill="#67EADA" transform="translate(49,189)"/>
<path d="M0 0 C2.75903196 2.24171347 3.90469787 3.36011426 4.4375 6.9375 C3.95716115 10.29987194 2.94405774 12.24591819 1 15 C0.67 14.01 0.34 13.02 0 12 C0.33 11.67 0.66 11.34 1 11 C0.91015699 9.14227838 0.75388139 7.28752015 0.5625 5.4375 C0.46066406 4.42558594 0.35882813 3.41367188 0.25390625 2.37109375 C0.17011719 1.58863281 0.08632812 0.80617187 0 0 Z " fill="#63BBDE" transform="translate(89,235)"/>
<path d="M0 0 C0.99 0.33 1.98 0.66 3 1 C3.6875 3.0625 3.6875 3.0625 4 5 C3.01 5.66 2.02 6.32 1 7 C0.27034634 9.56282742 0.27034634 9.56282742 0 12 C-0.33 12 -0.66 12 -1 12 C-1.02712066 10.56260487 -1.04645067 9.12506137 -1.0625 7.6875 C-1.07410156 6.88699219 -1.08570313 6.08648437 -1.09765625 5.26171875 C-1 3 -1 3 0 0 Z " fill="#3EAABA" transform="translate(36,189)"/>
<path d="M0 0 C2.46301423 2.46301423 2.76766521 4.27360036 3.625 7.625 C3.88539063 8.62789063 4.14578125 9.63078125 4.4140625 10.6640625 C4.60742188 11.43492187 4.80078125 12.20578125 5 13 C1.88009102 10.21466571 1.46183818 8.15654359 1 4 C-0.32 4 -1.64 4 -3 4 C-3 3.34 -3 2.68 -3 2 C-2.01 2 -1.02 2 0 2 C0 1.34 0 0.68 0 0 Z " fill="#56B9E2" transform="translate(430,266)"/>
<path d="M0 0 C0.33 0 0.66 0 1 0 C0.85831863 1.43791516 0.71148957 2.8753237 0.5625 4.3125 C0.48128906 5.11300781 0.40007812 5.91351563 0.31640625 6.73828125 C0 9 0 9 -1 12 C-1.99 12 -2.98 12 -4 12 C-2 3.42857143 -2 3.42857143 0 0 Z " fill="#5AB7E2" transform="translate(129,255)"/>
<path d="M0 0 C-0.50789063 0.30292969 -1.01578125 0.60585937 -1.5390625 0.91796875 C-6.02639994 3.64902618 -10.04684564 6.54098993 -14 10 C-14 7 -14 7 -11.875 4.5 C-4.84337349 -1.61445783 -4.84337349 -1.61445783 0 0 Z " fill="#7FECD6" transform="translate(69,176)"/>
<path d="M0 0 C0.33 0.66 0.66 1.32 1 2 C-0.98 4.97 -2.96 7.94 -5 11 C-6.32 10.67 -7.64 10.34 -9 10 C-7.625 8.5 -7.625 8.5 -6 7 C-5.34 7 -4.68 7 -4 7 C-3.71125 6.401875 -3.4225 5.80375 -3.125 5.1875 C-2 3 -2 3 0 0 Z " fill="#4288AB" transform="translate(110,265)"/>
<path d="M0 0 C0.33 0 0.66 0 1 0 C1.05411124 2.41696872 1.09372278 4.83271787 1.125 7.25 C1.15013672 8.27287109 1.15013672 8.27287109 1.17578125 9.31640625 C1.21213482 13.0608235 1.07944349 15.82352727 -1 19 C-1.66 19 -2.32 19 -3 19 C-2.690625 18.0925 -2.38125 17.185 -2.0625 16.25 C-0.52310987 10.95493464 -0.34179698 5.47774637 0 0 Z " fill="#438BAB" transform="translate(114,246)"/>
<path d="M0 0 C6.38520354 0.15963009 9.66008365 3.78124883 14 8 C10.0345034 8 9.03641169 6.47149789 6 4 C4.02288349 2.95548562 2.02749004 1.94301862 0 1 C0 0.67 0 0.34 0 0 Z " fill="#6DCBDA" transform="translate(81,199)"/>
<path d="M0 0 C1.32 0.33 2.64 0.66 4 1 C3.67 4.96 3.34 8.92 3 13 C0.89172945 9.83759418 0.66182535 8.49342531 0.375 4.8125 C0.30023438 3.91144531 0.22546875 3.01039063 0.1484375 2.08203125 C0.09945312 1.39496094 0.05046875 0.70789063 0 0 Z " fill="#419AB9" transform="translate(34,202)"/>
<path d="M0 0 C0.33 0.66 0.66 1.32 1 2 C2.32 2 3.64 2 5 2 C4.67 4.64 4.34 7.28 4 10 C3.34 9.67 2.68 9.34 2 9 C1.3671875 6.93359375 1.3671875 6.93359375 0.875 4.4375 C0.70742188 3.61121094 0.53984375 2.78492188 0.3671875 1.93359375 C0.24601562 1.29550781 0.12484375 0.65742188 0 0 Z " fill="#53BBE2" transform="translate(371,280)"/>
<path d="M0 0 C0.66 0.33 1.32 0.66 2 1 C0.7934375 1.8971875 0.7934375 1.8971875 -0.4375 2.8125 C-3.22327984 4.80947276 -3.22327984 4.80947276 -4 8 C-4.99 8 -5.98 8 -7 8 C-7 8.66 -7 9.32 -7 10 C-7.66 10 -8.32 10 -9 10 C-7.61811547 6.78956118 -6.07578097 4.95063635 -3.375 2.75 C-2.74335937 2.22921875 -2.11171875 1.7084375 -1.4609375 1.171875 C-0.73777344 0.59179688 -0.73777344 0.59179688 0 0 Z " fill="#7BEEDF" transform="translate(53,166)"/>
<path d="M0 0 C0.33 0 0.66 0 1 0 C1 3.63 1 7.26 1 11 C-1.97 11 -4.94 11 -8 11 C-7.67 10.34 -7.34 9.68 -7 9 C-3.9375 8.375 -3.9375 8.375 -1 8 C-0.67 5.36 -0.34 2.72 0 0 Z " fill="#38C9E7" transform="translate(155,280)"/>
<path d="M0 0 C2 1.375 2 1.375 4 3 C4 3.66 4 4.32 4 5 C4.66 5 5.32 5 6 5 C7.6875 7.375 7.6875 7.375 9 10 C8.67 10.66 8.34 11.32 8 12 C7.67 11.01 7.34 10.02 7 9 C6.01 8.67 5.02 8.34 4 8 C0 2.62857143 0 2.62857143 0 0 Z " fill="#61B9DA" transform="translate(117,219)"/>
<path d="M0 0 C0.33 0 0.66 0 1 0 C1.19294408 4.82360189 0.75747614 8.49646738 -1 13 C-2.4606285 10.35261084 -3 9.10551666 -3 6 C-2.34 5.67 -1.68 5.34 -1 5 C-0.34444881 2.47266765 -0.34444881 2.47266765 0 0 Z " fill="#4CBDDE" transform="translate(331,267)"/>
<path d="M0 0 C1.32 0 2.64 0 4 0 C5.8125 2.3125 5.8125 2.3125 7 5 C6.67 5.99 6.34 6.98 6 8 C4.9970458 6.85675161 3.99770973 5.71032809 3 4.5625 C2.443125 3.92441406 1.88625 3.28632813 1.3125 2.62890625 C0 1 0 1 0 0 Z " fill="#44E2E6" transform="translate(40,193)"/>
<path d="M0 0 C0.99 0.33 1.98 0.66 3 1 C2.67 2.32 2.34 3.64 2 5 C0.35 5 -1.3 5 -3 5 C-2.625 3.0625 -2.625 3.0625 -2 1 C-1.34 0.67 -0.68 0.34 0 0 Z " fill="#4BBDE3" transform="translate(415,274)"/>
<path d="M0 0 C2.475 0.99 2.475 0.99 5 2 C5 4.31 5 6.62 5 9 C4.34 8.67 3.68 8.34 3 8 C3 6.68 3 5.36 3 4 C2.01 4.33 1.02 4.66 0 5 C0 3.35 0 1.7 0 0 Z " fill="#3DC3F6" transform="translate(122,229)"/>
<path d="M0 0 C1.32 0.66 2.64 1.32 4 2 C2.6875 3.5 2.6875 3.5 1 5 C0.01 5 -0.98 5 -2 5 C-2 5.66 -2 6.32 -2 7 C-2.66 7 -3.32 7 -4 7 C-2.79618552 4.50638429 -1.54571278 2.31856917 0 0 Z " fill="#32F9F1" transform="translate(64,160)"/>
<path d="M0 0 C0.99 0.33 1.98 0.66 3 1 C2.34 3.31 1.68 5.62 1 8 C-1 5 -1 5 -0.625 2.3125 C-0.41875 1.549375 -0.2125 0.78625 0 0 Z " fill="#50BAF2" transform="translate(408,263)"/>
<path d="M0 0 C2.97 0.33 5.94 0.66 9 1 C9 1.99 9 2.98 9 4 C6.03 3.01 3.06 2.02 0 1 C0 0.67 0 0.34 0 0 Z " fill="#53BCE3" transform="translate(55,235)"/>
<path d="M0 0 C-2.96687001 1.64826111 -5.65626525 2.44271087 -9 3 C-9 2.01 -9 1.02 -9 0 C-5.52176885 -1.15941038 -3.54104422 -0.70820884 0 0 Z " fill="#4AB5E3" transform="translate(74,229)"/>
<path d="M0 0 C3.5875213 1.33250791 6.8364623 2.830717 10 5 C10 5.66 10 6.32 10 7 C5.56541027 5.6062718 3.12621626 3.39417765 0 0 Z " fill="#3285AA" transform="translate(48,284)"/>
<path d="M0 0 C2.74277578 3.19990508 4.6302836 6.00499382 6 10 C5.34 10 4.68 10 4 10 C3.67 9.01 3.34 8.02 3 7 C2.484375 6.525625 1.96875 6.05125 1.4375 5.5625 C0 4 0 4 0 0 Z " fill="#56B4DA" transform="translate(254,261)"/>
<path d="M0 0 C0.33 0.66 0.66 1.32 1 2 C-0.14453125 3.51953125 -0.14453125 3.51953125 -2 5 C-4.69921875 5.07421875 -4.69921875 5.07421875 -7.6875 4.6875 C-9.17830078 4.50767578 -9.17830078 4.50767578 -10.69921875 4.32421875 C-11.45847656 4.21722656 -12.21773438 4.11023438 -13 4 C-13 3.67 -13 3.34 -13 3 C-12.22914063 2.95101563 -11.45828125 2.90203125 -10.6640625 2.8515625 C-9.66117187 2.77679688 -8.65828125 2.70203125 -7.625 2.625 C-6.62726563 2.55539062 -5.62953125 2.48578125 -4.6015625 2.4140625 C-1.84491121 2.23636036 -1.84491121 2.23636036 0 0 Z " fill="#5DB4DA" transform="translate(371,258)"/>
<path d="M0 0 C2.72426311 2.35277269 3.8141763 4.62496331 5 8 C2.525 7.01 2.525 7.01 0 6 C0 4.02 0 2.04 0 0 Z " fill="#50BADF" transform="translate(247,250)"/>
<path d="M0 0 C0.66 0.66 1.32 1.32 2 2 C1.67 2.33 1.34 2.66 1 3 C0.63239269 5.32817964 0.29758419 7.6618385 0 10 C-0.33 10 -0.66 10 -1 10 C-1.66 7.03 -2.32 4.06 -3 1 C-2.01 0.67 -1.02 0.34 0 0 Z " fill="#4FBBDE" transform="translate(373,248)"/>
<path d="M0 0 C1.42944945 2.35438733 2.08661261 3.48032433 1.625 6.25 C1.41875 6.8275 1.2125 7.405 1 8 C0.34 7.67 -0.32 7.34 -1 7 C-1.33 7.66 -1.66 8.32 -2 9 C-2 7.02 -2 5.04 -2 3 C-1.34 3 -0.68 3 0 3 C0 2.01 0 1.02 0 0 Z " fill="#5DBEE1" transform="translate(407,243)"/>
<path d="M0 0 C0.66 0.33 1.32 0.66 2 1 C-1.32307692 4.93846154 -1.32307692 4.93846154 -4.75 5.25 C-5.4925 5.1675 -6.235 5.085 -7 5 C-4.88437775 2.67281553 -2.94982021 1.14186589 0 0 Z " fill="#59F1E4" transform="translate(62,161)"/>
<path d="M0 0 C1.65 0 3.3 0 5 0 C4.01 0.495 4.01 0.495 3 1 C2.26924352 3.3140622 1.59861742 5.64828869 1 8 C0.67 8 0.34 8 0 8 C0 5.36 0 2.72 0 0 Z " fill="#50BDE5" transform="translate(192,263)"/>
<path d="M0 0 C2.31 0 4.62 0 7 0 C7.33 1.65 7.66 3.3 8 5 C5.36 3.68 2.72 2.36 0 1 C0 0.67 0 0.34 0 0 Z " fill="#54A3CD" transform="translate(95,221)"/>
<path d="M0 0 C4.95 0.99 4.95 0.99 10 2 C9.01 2.99 8.02 3.98 7 5 C3.535 3.02 3.535 3.02 0 1 C0 0.67 0 0.34 0 0 Z " fill="#31ABD2" transform="translate(96,218)"/>
<path d="M0 0 C-0.60183749 2.02045442 -1.27306096 4.02111039 -2 6 C-2.99 6.495 -2.99 6.495 -4 7 C-4.6875 5.1875 -4.6875 5.1875 -5 3 C-3.38441968 0.84589291 -2.74502455 0 0 0 Z " fill="#81F2D8" transform="translate(55,186)"/>
<path d="M0 0 C2.31 1.98 4.62 3.96 7 6 C6.67 6.66 6.34 7.32 6 8 C3.36 6.02 0.72 4.04 -2 2 C-1.34 1.34 -0.68 0.68 0 0 Z " fill="#B0F7E1" transform="translate(100,176)"/>
<path d="M0 0 C1.9375 0.375 1.9375 0.375 4 1 C4.33 1.66 4.66 2.32 5 3 C3.02 3.33 1.04 3.66 -1 4 C-0.67 2.68 -0.34 1.36 0 0 Z " fill="#3AFAED" transform="translate(55,166)"/>
<path d="M0 0 C1.98 0 3.96 0 6 0 C6 1.32 6 2.64 6 4 C3.69 3.34 1.38 2.68 -1 2 C-0.67 1.34 -0.34 0.68 0 0 Z " fill="#1792CC" transform="translate(50,282)"/>
<path d="M0 0 C2.95409701 1.37154504 5.44008376 2.98863724 8 5 C7.67 5.99 7.34 6.98 7 8 C5.83035398 6.8572081 4.66435444 5.71068285 3.5 4.5625 C2.8503125 3.92441406 2.200625 3.28632813 1.53125 2.62890625 C0 1 0 1 0 0 Z " fill="#3C97BC" transform="translate(40,276)"/>
<path d="M0 0 C1.65 0 3.3 0 5 0 C3.68 2.31 2.36 4.62 1 7 C0.67 7 0.34 7 0 7 C0 4.69 0 2.38 0 0 Z " fill="#56B2E5" transform="translate(297,251)"/>
<path d="M0 0 C1.98 0.495 1.98 0.495 4 1 C3.54625 1.5775 3.0925 2.155 2.625 2.75 C0.77047097 5.1905049 0.77047097 5.1905049 -1 9 C-0.67 6.03 -0.34 3.06 0 0 Z " fill="#53B8D9" transform="translate(183,251)"/>
<path d="M0 0 C0.66 0 1.32 0 2 0 C2 2.97 2 5.94 2 9 C1.01 8.67 0.02 8.34 -1 8 C-1 7.01 -1 6.02 -1 5 C-0.34 5 0.32 5 1 5 C0.67 3.35 0.34 1.7 0 0 Z " fill="#53ECE7" transform="translate(48,193)"/>
<path d="" fill="#FFFFFF" transform="translate(0,0)"/>
<path d="" fill="#FFFFFF" transform="translate(0,0)"/>
<path d="" fill="#FFFFFF" transform="translate(0,0)"/>
<path d="" fill="#FFFFFF" transform="translate(0,0)"/>
<path d="" fill="#FFFFFF" transform="translate(0,0)"/>
<path d="" fill="#FFFFFF" transform="translate(0,0)"/>
<path d="" fill="#FFFFFF" transform="translate(0,0)"/>
<path d="" fill="#FFFFFF" transform="translate(0,0)"/>
<path d="" fill="#FFFFFF" transform="translate(0,0)"/>
<path d="" fill="#FFFFFF" transform="translate(0,0)"/>
<path d="" fill="#FFFFFF" transform="translate(0,0)"/>
<path d="" fill="#FFFFFF" transform="translate(0,0)"/>
<path d="" fill="#FFFFFF" transform="translate(0,0)"/>
<path d="" fill="#FFFFFF" transform="translate(0,0)"/>
<path d="" fill="#FFFFFF" transform="translate(0,0)"/>
<path d="" fill="#FFFFFF" transform="translate(0,0)"/>
<path d="" fill="#FFFFFF" transform="translate(0,0)"/>
<path d="" fill="#FFFFFF" transform="translate(0,0)"/>
<path d="" fill="#FFFFFF" transform="translate(0,0)"/>
<path d="" fill="#FFFFFF" transform="translate(0,0)"/>
<path d="" fill="#FFFFFF" transform="translate(0,0)"/>
<path d="" fill="#FFFFFF" transform="translate(0,0)"/>
<path d="" fill="#FFFFFF" transform="translate(0,0)"/>
<path d="" fill="#FFFFFF" transform="translate(0,0)"/>
<path d="" fill="#FFFFFF" transform="translate(0,0)"/>
<path d="" fill="#FFFFFF" transform="translate(0,0)"/>
<path d="" fill="#FFFFFF" transform="translate(0,0)"/>
<path d="" fill="#FFFFFF" transform="translate(0,0)"/>
<path d="" fill="#FFFFFF" transform="translate(0,0)"/>
<path d="" fill="#FFFFFF" transform="translate(0,0)"/>
<path d="" fill="#FFFFFF" transform="translate(0,0)"/>
<path d="" fill="#FFFFFF" transform="translate(0,0)"/>
<path d="" fill="#FFFFFF" transform="translate(0,0)"/>
<path d="" fill="#FFFFFF" transform="translate(0,0)"/>
<path d="" fill="#FFFFFF" transform="translate(0,0)"/>
<path d="" fill="#FFFFFF" transform="translate(0,0)"/>
<path d="" fill="#FFFFFF" transform="translate(0,0)"/>
<path d="" fill="#FFFFFF" transform="translate(0,0)"/>
<path d="" fill="#FFFFFF" transform="translate(0,0)"/>
<path d="" fill="#FFFFFF" transform="translate(0,0)"/>
<path d="" fill="#FFFFFF" transform="translate(0,0)"/>
<path d="" fill="#FFFFFF" transform="translate(0,0)"/>
<path d="" fill="#FFFFFF" transform="translate(0,0)"/>
<path d="" fill="#FFFFFF" transform="translate(0,0)"/>
<path d="" fill="#FFFFFF" transform="translate(0,0)"/>
<path d="" fill="#FFFFFF" transform="translate(0,0)"/>
<path d="" fill="#FFFFFF" transform="translate(0,0)"/>
<path d="" fill="#FFFFFF" transform="translate(0,0)"/>
<path d="" fill="#FFFFFF" transform="translate(0,0)"/>
<path d="" fill="#FFFFFF" transform="translate(0,0)"/>
<path d="" fill="#FFFFFF" transform="translate(0,0)"/>
<path d="" fill="#FFFFFF" transform="translate(0,0)"/>
<path d="" fill="#FFFFFF" transform="translate(0,0)"/>
<path d="" fill="#FFFFFF" transform="translate(0,0)"/>
<path d="" fill="#FFFFFF" transform="translate(0,0)"/>
<path d="" fill="#FFFFFF" transform="translate(0,0)"/>
<path d="" fill="#FFFFFF" transform="translate(0,0)"/>
<path d="" fill="#FFFFFF" transform="translate(0,0)"/>
<path d="" fill="#FFFFFF" transform="translate(0,0)"/>
<path d="" fill="#FFFFFF" transform="translate(0,0)"/>
<path d="" fill="#FFFFFF" transform="translate(0,0)"/>
<path d="" fill="#FFFFFF" transform="translate(0,0)"/>
<path d="" fill="#FFFFFF" transform="translate(0,0)"/>
</svg>
