<?xml version="1.0" encoding="UTF-8"?>
<svg version="1.1" xmlns="http://www.w3.org/2000/svg" width="500" height="500">
<path d="M0 0 C4.38767038 2.47192697 7.86793648 6.04164077 11.50048828 9.47900391 C22.18356068 19.48251697 35.80388183 25.29966126 48.94921875 31.39453125 C49.96016602 31.86729492 50.97111328 32.34005859 52.01269531 32.82714844 C53.99289055 33.75098592 55.9777105 34.66499797 57.96777344 35.56738281 C66.53482305 39.56653041 73.68107651 44.74789009 80.125 51.6875 C80.71796875 52.28691406 81.3109375 52.88632813 81.921875 53.50390625 C100.67777979 73.24122467 105.02268958 98.8721545 104.4765625 125.125 C103.9562954 138.10547706 100.74758166 149.96695806 95.125 161.6875 C94.44630859 163.17830078 94.44630859 163.17830078 93.75390625 164.69921875 C82.02251938 189.52906468 59.69700372 209.68925359 34.15234375 219.6328125 C20.35530318 224.43952341 6.99255215 227.07654314 -7.625 227 C-8.76388672 226.99436035 -9.90277344 226.9887207 -11.07617188 226.98291016 C-43.40402158 226.51937909 -69.51138914 212.54063526 -93.14453125 191.5 C-94.875 189.6875 -94.875 189.6875 -94.875 187.6875 C-95.535 187.6875 -96.195 187.6875 -96.875 187.6875 C-98.55020813 185.7652288 -100.09623643 183.84680558 -101.625 181.8125 C-102.29499023 180.9309021 -102.29499023 180.9309021 -102.97851562 180.03149414 C-106.65067115 175.13107965 -109.94224235 170.06752502 -112.875 164.6875 C-113.2565625 163.99785156 -113.638125 163.30820312 -114.03125 162.59765625 C-114.875 160.6875 -114.875 160.6875 -114.875 157.6875 C-107.34075107 156.495372 -99.86609107 156.50380805 -92.25 156.5 C-90.95320313 156.48775391 -89.65640625 156.47550781 -88.3203125 156.46289062 C-87.06734375 156.46095703 -85.814375 156.45902344 -84.5234375 156.45703125 C-83.39083496 156.45292236 -82.25823242 156.44881348 -81.09130859 156.44458008 C-77.031892 156.75117789 -73.34518956 157.42929126 -70.1953125 160.125 C-66.875 164.46527778 -66.875 164.46527778 -66.875 166.6875 C-66.28460938 166.95304688 -65.69421875 167.21859375 -65.0859375 167.4921875 C-62.81783948 168.71840304 -61.34147902 170.02101588 -59.5 171.8125 C-45.00711636 184.74004426 -24.11508943 191.64893332 -4.73828125 190.97265625 C18.18761517 188.68944965 37.19423462 179.73488824 52.3125 162 C63.75175763 147.02497183 69.780846 127.51251077 67.92480469 108.65332031 C65.25144139 89.41077247 56.85964787 73.34049326 41.8125 60.9375 C29.58497755 52.0028095 15.91678279 48.86460923 1.40625 45.62890625 C-10.20375807 43.03293394 -18.73849653 40.67885194 -26.125 30.625 C-29.3081976 25.28177546 -29.8625656 19.6305009 -28.34375 13.56640625 C-26.32153477 7.75253747 -23.68266386 3.51217209 -18.25 0.375 C-12.34821148 -2.31261745 -6.01357943 -2.53269009 0 0 Z " fill="#1E72AD" transform="translate(251.875,168.3125)"/>
<path d="M0 0 C1.81746187 1.50800839 3.60427555 3.05678661 5.3125 4.6875 C5.3125 5.3475 5.3125 6.0075 5.3125 6.6875 C6.3025 7.0175 7.2925 7.3475 8.3125 7.6875 C8.3125 8.3475 8.3125 9.0075 8.3125 9.6875 C9.3025 10.0175 10.2925 10.3475 11.3125 10.6875 C26.3125 28.03035714 26.3125 28.03035714 26.3125 35.6875 C20.38601426 35.76159532 14.45979747 35.81607616 8.53295898 35.85229492 C6.51630966 35.86739179 4.49969321 35.88787115 2.4831543 35.91381836 C-0.41365671 35.95016211 -3.31003406 35.9672172 -6.20703125 35.98046875 C-7.56185356 36.00369453 -7.56185356 36.00369453 -8.94404602 36.02738953 C-10.2050135 36.02772942 -10.2050135 36.02772942 -11.49145508 36.02807617 C-12.60065056 36.03806892 -12.60065056 36.03806892 -13.73225403 36.04826355 C-16.24426732 35.58477054 -17.14494635 34.68614309 -18.6875 32.6875 C-18.6875 32.0275 -18.6875 31.3675 -18.6875 30.6875 C-19.3475 30.6875 -20.0075 30.6875 -20.6875 30.6875 C-21.80096428 29.53923996 -22.91433566 28.39088973 -24.02734375 27.2421875 C-38.29191869 13.88383261 -57.87367196 7.45748867 -77.18603516 7.72167969 C-97.95211019 8.65132605 -115.97570614 15.54391345 -130.6875 30.6875 C-131.1825 31.6775 -131.1825 31.6775 -131.6875 32.6875 C-132.3475 32.6875 -133.0075 32.6875 -133.6875 32.6875 C-133.94660156 33.23148438 -134.20570313 33.77546875 -134.47265625 34.3359375 C-135.89225224 37.08383714 -137.50772811 39.67617292 -139.125 42.3125 C-142.2673324 47.67793478 -144.26366257 52.6612585 -145.6875 58.6875 C-145.89117187 59.39003906 -146.09484375 60.09257812 -146.3046875 60.81640625 C-150.67145849 77.05720521 -146.94476127 93.8982126 -139.23828125 108.41796875 C-130.57375874 123.45011936 -117.61551442 132.83602904 -100.9375 137.8046875 C-95.34075875 139.28112844 -89.68958835 140.4875442 -84.01953125 141.64453125 C-62.59239427 146.06199518 -62.59239427 146.06199518 -55.09765625 155.5234375 C-51.24990468 161.42829725 -50.00530224 167.19469126 -50.96875 174.1796875 C-52.22661204 178.56853223 -54.62157381 182.32067389 -57.6875 185.6875 C-58.3475 185.6875 -59.0075 185.6875 -59.6875 185.6875 C-59.6875 186.3475 -59.6875 187.0075 -59.6875 187.6875 C-64.61256929 191.45536316 -69.18280451 191.30648506 -75.1796875 191.15625 C-82.60468793 190.16404504 -86.76463884 185.90099763 -91.4375 180.375 C-101.80160921 168.26663757 -117.37266488 161.81440536 -131.86328125 155.98828125 C-145.26357622 150.55692701 -159.22277947 142.75422927 -167.6875 130.6875 C-168.3371875 129.8315625 -168.986875 128.975625 -169.65625 128.09375 C-183.48227506 108.90240178 -187.91046623 83.94529239 -184.4765625 60.80078125 C-180.75275083 40.29002656 -172.45600361 22.89544775 -158.3125 7.4375 C-157.78833496 6.86394775 -157.26416992 6.29039551 -156.72412109 5.69946289 C-155.42346765 4.31844629 -154.0602415 2.9968842 -152.6875 1.6875 C-152.0275 1.6875 -151.3675 1.6875 -150.6875 1.6875 C-150.44257813 1.09324219 -150.19765625 0.49898437 -149.9453125 -0.11328125 C-142.4408381 -13.23445854 -117.43905803 -21.05116662 -103.66064453 -24.875 C-67.01556445 -34.40466205 -28.87404943 -23.67603995 0 0 Z " fill="#63FCDB" transform="translate(319.6875,98.3125)"/>
<path d="M0 0 C3.66169192 0.55580106 3.66169192 0.55580106 5.15673828 2.51879883 C5.45821777 3.15841553 5.75969727 3.79803223 6.0703125 4.45703125 C6.40933594 5.15763672 6.74835938 5.85824219 7.09765625 6.58007812 C7.60619141 7.68512695 7.60619141 7.68512695 8.125 8.8125 C8.47175781 9.53759766 8.81851563 10.26269531 9.17578125 11.00976562 C9.82434619 12.36777612 10.46710545 13.72858605 11.10205078 15.09301758 C11.39837402 15.72232178 11.69469727 16.35162598 12 17 C12.45802002 18.07834106 12.45802002 18.07834106 12.92529297 19.1784668 C13.93341677 21.34246127 13.93341677 21.34246127 17 22 C17.721875 22.7425 18.44375 23.485 19.1875 24.25 C22.97914255 27.95738383 27.26497381 30.6324869 32 33 C32.52016277 35.44446434 32.93874102 37.84529759 33.3125 40.3125 C36.09537827 56.63169078 43.78764668 71.88511246 57.0625 82.0625 C69.25209152 90.55578681 82.35965935 94.03739069 96.66796875 96.95703125 C118.09510573 101.37449518 118.09510573 101.37449518 125.58984375 110.8359375 C129.43759532 116.74079725 130.68219776 122.50719126 129.71875 129.4921875 C128.46088796 133.88103223 126.06592619 137.63317389 123 141 C122.34 141 121.68 141 121 141 C121 141.66 121 142.32 121 143 C116.07493071 146.76786316 111.50469549 146.61898506 105.5078125 146.46875 C98.08281207 145.47654504 93.92286116 141.21349763 89.25 135.6875 C78.88589079 123.57913757 63.31483512 117.12690536 48.82421875 111.30078125 C35.42392378 105.86942701 21.46472053 98.06672927 13 86 C12.3503125 85.1440625 11.700625 84.288125 11.03125 83.40625 C-2.96704187 63.97578517 -7.07456483 39.13056614 -3.6796875 15.76171875 C-2.71668765 10.43201267 -1.47978303 5.20883627 0 0 Z " fill="#2692BD" transform="translate(139,143)"/>
<path d="M0 0 C4.38767038 2.47192697 7.86793648 6.04164077 11.50048828 9.47900391 C22.18356068 19.48251697 35.80388183 25.29966126 48.94921875 31.39453125 C49.96016602 31.86729492 50.97111328 32.34005859 52.01269531 32.82714844 C53.99289055 33.75098592 55.9777105 34.66499797 57.96777344 35.56738281 C66.53482305 39.56653041 73.68107651 44.74789009 80.125 51.6875 C80.71796875 52.28691406 81.3109375 52.88632813 81.921875 53.50390625 C100.67857501 73.24206149 105.01419355 98.86494506 104.48046875 125.1171875 C103.99894292 137.17097858 101.2929739 148.7467893 96.125 159.6875 C95.465 159.6875 94.805 159.6875 94.125 159.6875 C94.02703125 158.61113281 93.9290625 157.53476562 93.828125 156.42578125 C92.40007169 141.98915864 89.51992243 128.27859429 80.44140625 116.50390625 C79.125 114.6875 79.125 114.6875 79.125 112.6875 C77.64 112.1925 77.64 112.1925 76.125 111.6875 C76.125 111.0275 76.125 110.3675 76.125 109.6875 C75.465 109.6875 74.805 109.6875 74.125 109.6875 C74.125 109.0275 74.125 108.3675 74.125 107.6875 C73.465 107.6875 72.805 107.6875 72.125 107.6875 C71.10395449 106.70899805 70.1043879 105.70769573 69.125 104.6875 C68.465 104.3575 67.805 104.0275 67.125 103.6875 C66.32627084 101.08789086 65.61643002 98.50571357 64.9375 95.875 C60.167644 78.73041607 49.69021819 65.45230759 34.55859375 56.1015625 C24.25156422 50.45348234 12.78408239 48.16604852 1.40625 45.62890625 C-10.20375807 43.03293394 -18.73849653 40.67885194 -26.125 30.625 C-29.3081976 25.28177546 -29.8625656 19.6305009 -28.34375 13.56640625 C-26.32153477 7.75253747 -23.68266386 3.51217209 -18.25 0.375 C-12.34821148 -2.31261745 -6.01357943 -2.53269009 0 0 Z " fill="#3DBCEF" transform="translate(251.875,168.3125)"/>
<path d="M0 0 C0.6488768 -0.00013092 1.2977536 -0.00026184 1.96629333 -0.00039673 C4.0701998 0.00276763 6.17354852 0.02159575 8.27734375 0.04296875 C9.73828089 0.05319351 11.19921839 0.06336572 12.66015625 0.07348633 C16.84537829 0.10801209 21.02994068 0.16867191 25.21484375 0.23046875 C26.73440674 0.24352051 26.73440674 0.24352051 28.28466797 0.25683594 C46.68516214 0.45385064 71.52593908 2.09896677 85.5234375 15.3046875 C89.4905433 19.82150774 91.97332966 25.19261651 92.21484375 31.23046875 C91.56653485 38.18821253 89.81008059 42.94594639 85.21484375 48.23046875 C84.55484375 48.23046875 83.89484375 48.23046875 83.21484375 48.23046875 C83.21484375 48.89046875 83.21484375 49.55046875 83.21484375 50.23046875 C78.28977446 53.99833191 73.71953924 53.84945381 67.72265625 53.69921875 C60.29765582 52.70701379 56.13770491 48.44396638 51.46484375 42.91796875 C40.98748202 30.67729369 25.3923669 24.49044497 10.86328125 18.390625 C2.26956104 14.77440049 -5.22981403 10.73957245 -12.78515625 5.23046875 C-11.78515625 2.23046875 -11.78515625 2.23046875 -9.64672852 1.05737305 C-6.30742182 0.09241854 -3.4766671 -0.01203326 0 0 Z " fill="#3CBEF0" transform="translate(176.78515625,235.76953125)"/>
<path d="M0 0 C1.32 0.66 2.64 1.32 4 2 C4 2.66 4 3.32 4 4 C4.66 4 5.32 4 6 4 C6 4.66 6 5.32 6 6 C6.66 6 7.32 6 8 6 C9.75 7.9375 9.75 7.9375 12 11 C12.45632813 11.6084375 12.91265625 12.216875 13.3828125 12.84375 C19.96750724 22.08300754 24.60191686 32.7142686 26 44 C26.17917969 45.09054687 26.35835938 46.18109375 26.54296875 47.3046875 C28.20209993 60.26576353 22.62394101 68.39866993 15.0234375 78.4453125 C6.90166205 88.69944598 6.90166205 88.69944598 3 90 C-5.1124842 90.69727137 -13.14606683 89.77642188 -21.1875 88.75 C-22.10120361 88.64075195 -23.01490723 88.53150391 -23.95629883 88.41894531 C-29.69247798 87.63187977 -34.60994682 86.1763607 -39.8996582 83.81347656 C-42.09085574 82.81941781 -42.09085574 82.81941781 -45 83 C-44 80 -44 80 -41.8125 78.640625 C-40.4203125 77.95226562 -40.4203125 77.95226562 -39 77.25 C-22.09748088 68.32983185 -9.63223142 53.65420671 -3.625 35.5 C-0.39314095 23.68798419 0.30657805 12.16092938 0 0 Z " fill="#2B8BBC" transform="translate(320,272)"/>
<path d="M0 0 C1.29679687 -0.01224609 2.59359375 -0.02449219 3.9296875 -0.03710938 C5.18265625 -0.03904297 6.435625 -0.04097656 7.7265625 -0.04296875 C8.85916504 -0.04707764 9.99176758 -0.05118652 11.15869141 -0.05541992 C15.218108 0.25117789 18.90481044 0.92929126 22.0546875 3.625 C25.375 7.96527778 25.375 7.96527778 25.375 10.1875 C25.96539062 10.45304687 26.55578125 10.71859375 27.1640625 10.9921875 C29.43216052 12.21840304 30.90852098 13.52101588 32.75 15.3125 C43.61307891 25.00228547 57.24837477 30.40849176 71.375 33.1875 C70.8125 36.0625 70.8125 36.0625 69.375 39.1875 C65.75 40.5625 65.75 40.5625 62.375 41.1875 C62.375 41.8475 62.375 42.5075 62.375 43.1875 C54.83088868 47.07096659 47.36109407 49.02812095 39.0625 50.5625 C38.12003418 50.74200195 37.17756836 50.92150391 36.20654297 51.10644531 C30.93282206 52.02353296 26.62139311 52.30190626 21.375 51.1875 C20.88 49.2075 20.88 49.2075 20.375 47.1875 C19.055 46.8575 17.735 46.5275 16.375 46.1875 C16.375 46.8475 16.375 47.5075 16.375 48.1875 C12.25661149 46.46305161 9.11867742 43.66986031 5.75 40.8125 C5.16476563 40.33039063 4.57953125 39.84828125 3.9765625 39.3515625 C1.05965373 36.88958446 -1.29703574 34.826467 -2.625 31.1875 C-3.285 31.1875 -3.945 31.1875 -4.625 31.1875 C-6.30020813 29.2652288 -7.84623643 27.34680558 -9.375 25.3125 C-9.82166016 24.72476807 -10.26832031 24.13703613 -10.72851562 23.53149414 C-14.40067115 18.63107965 -17.69224235 13.56752502 -20.625 8.1875 C-21.0065625 7.49785156 -21.388125 6.80820312 -21.78125 6.09765625 C-22.625 4.1875 -22.625 4.1875 -22.625 1.1875 C-15.09075107 -0.004628 -7.61609107 0.00380805 0 0 Z M26.375 52.1875 C28.375 53.1875 28.375 53.1875 28.375 53.1875 Z " fill="#1E92C4" transform="translate(159.625,324.8125)"/>
<path d="M0 0 C17.42970464 1.91927605 32.5681224 12.44072159 46 23 C46.68835938 23.53238281 47.37671875 24.06476563 48.0859375 24.61328125 C49.43594371 25.68758197 50.72819251 26.83417647 52 28 C52 28.66 52 29.32 52 30 C53.485 30.495 53.485 30.495 55 31 C55 31.66 55 32.32 55 33 C56.485 33.495 56.485 33.495 58 34 C73 51.34285714 73 51.34285714 73 59 C67.07351426 59.07409532 61.14729747 59.12857616 55.22045898 59.16479492 C53.20380966 59.17989179 51.18719321 59.20037115 49.1706543 59.22631836 C46.27384329 59.26266211 43.37746594 59.2797172 40.48046875 59.29296875 C39.12564644 59.31619453 39.12564644 59.31619453 37.74345398 59.33988953 C36.90280899 59.34011612 36.062164 59.34034271 35.19604492 59.34057617 C34.45658127 59.34723801 33.71711761 59.35389984 32.95524597 59.36076355 C30.44323268 58.89727054 29.54255365 57.99864309 28 56 C28 55.34 28 54.68 28 54 C27.34 54 26.68 54 26 54 C24.88653572 52.85173996 23.77316434 51.70338973 22.66015625 50.5546875 C8.92059076 37.68798853 -7.89352284 33.05206741 -26 31 C-26 30.67 -26 30.34 -26 30 C-25.16855469 30.01160156 -24.33710938 30.02320312 -23.48046875 30.03515625 C-21.85044922 30.04869141 -21.85044922 30.04869141 -20.1875 30.0625 C-19.10855469 30.07410156 -18.02960938 30.08570312 -16.91796875 30.09765625 C-13.93487831 30.13624766 -13.93487831 30.13624766 -11 29 C-11 28.34 -11 27.68 -11 27 C-10.34 27 -9.68 27 -9 27 C-8.67 26.01 -8.34 25.02 -8 24 C-6.44140625 22.5703125 -6.44140625 22.5703125 -4.5625 21.125 C-1.52587987 18.62025224 -0.17496265 16.81862861 1 13 C1.515625 12.154375 2.03125 11.30875 2.5625 10.4375 C3.87112025 8.21853522 4.53532436 6.50924843 5 4 C3.35 2.68 1.7 1.36 0 0 Z " fill="#85FAD1" transform="translate(273,75)"/>
<path d="M0 0 C0 0.66 0 1.32 0 2 C1.65 2.66 3.3 3.32 5 4 C5 7.42085146 4.21894397 9.81720186 3 13 C2.34 13.66 1.68 14.32 1 15 C0.690625 15.845625 0.38125 16.69125 0.0625 17.5625 C-0.288125 18.366875 -0.63875 19.17125 -1 20 C-2.485 20.495 -2.485 20.495 -4 21 C-4.70151152 22.3153341 -5.36525925 23.65117592 -6 25 C-7.5 26.75 -7.5 26.75 -9 28 C-9.66 28 -10.32 28 -11 28 C-11 28.66 -11 29.32 -11 30 C-13 32 -13 32 -16.30859375 32.23046875 C-17.68496862 32.22828269 -19.06136341 32.21320302 -20.4375 32.1875 C-21.15671631 32.17887939 -21.87593262 32.17025879 -22.61694336 32.16137695 C-31.39308837 32.01545065 -38.93616341 31.8036965 -47 28 C-51.97507788 26.3107396 -56.48770702 25.86173477 -61.71875 25.99609375 C-64.00706223 26.00001209 -66.16925922 25.79151686 -68.4375 25.5 C-75.71305474 24.62235441 -82.05732914 24.39649843 -89 27 C-89.66 26.67 -90.32 26.34 -91 26 C-93.00800456 26.28112064 -95.01014051 26.61067967 -97 27 C-97 27.66 -97 28.32 -97 29 C-98.65 29 -100.3 29 -102 29 C-102.0625 26.75 -102.0625 26.75 -101 24 C-98.77665944 22.81539708 -96.50077611 21.95191966 -94.15234375 21.04296875 C-91.279602 19.65091422 -90.42875543 17.7823132 -89 15 C-86.8125 14.1875 -86.8125 14.1875 -85 14 C-85 13.01 -85 12.02 -85 11 C-58.28147622 -3.48644961 -29.63209485 -7.62379139 0 0 Z " fill="#26FAEB" transform="translate(273,74)"/>
<path d="M0 0 C-0.99 0.66 -1.98 1.32 -3 2 C4.82464687 19.88645371 4.82464687 19.88645371 18 34 C18.97259766 35.01900391 18.97259766 35.01900391 19.96484375 36.05859375 C26.5663858 42.35603406 36.29889397 45.04738959 45 47 C44.01 47.495 44.01 47.495 43 48 C42.34227572 51.02934491 42.34227572 51.02934491 42 54 C40.56206608 53.68950274 39.1246682 53.3765224 37.6875 53.0625 C36.88699219 52.88847656 36.08648437 52.71445313 35.26171875 52.53515625 C33 52 33 52 30 51 C28.72253906 50.87238281 27.44507813 50.74476563 26.12890625 50.61328125 C19.95671882 49.97021499 13.97777458 48.57769455 7.9375 47.1875 C6.23883789 46.8152832 6.23883789 46.8152832 4.50585938 46.43554688 C-6.10774589 44.0062243 -13.61679328 40.96603137 -20.25 31.9375 C-23.4331976 26.59427546 -23.9875656 20.9430009 -22.46875 14.87890625 C-20.42456165 9.00186474 -17.77899151 4.792824 -12.25 1.6875 C-8.01553674 -0.29441983 -4.6228671 -0.33020479 0 0 Z " fill="#2D91BD" transform="translate(246,167)"/>
<path d="M0 0 C1.74703535 1.45548085 3.4244076 2.96411143 5.09301758 4.50878906 C6.32868379 5.60419398 7.56697071 6.69664973 8.80786133 7.78613281 C9.40453613 8.31190918 10.00121094 8.83768555 10.6159668 9.37939453 C20.67635278 18.0940674 32.84227235 23.29593261 44.80004883 28.85644531 C45.93112061 29.38729736 47.06219238 29.91814941 48.22753906 30.46508789 C50.48865092 31.52454626 52.75503439 32.57283562 55.02685547 33.60913086 C56.06704834 34.09679932 57.10724121 34.58446777 58.17895508 35.08691406 C59.11400879 35.5177832 60.0490625 35.94865234 61.01245117 36.39257812 C63.51252194 37.96743433 64.26321493 39.08952153 65.28051758 41.82128906 C50.00713763 46.27602488 31.01289738 45.64114236 17.04614258 38.06738281 C14.33901911 36.42180903 11.73814761 34.82088384 9.28051758 32.82128906 C9.28051758 32.16128906 9.28051758 31.50128906 9.28051758 30.82128906 C8.69657227 30.57507813 8.11262695 30.32886719 7.51098633 30.07519531 C-1.72409832 24.88349274 -7.59048463 11.25013893 -11.71948242 1.82128906 C-12.08224215 0.4956593 -12.42411232 -0.83645709 -12.71948242 -2.17871094 C-8.27376175 -3.95699921 -3.81488023 -2.61511313 0 0 Z " fill="#49D6ED" transform="translate(254.719482421875,170.1787109375)"/>
<path d="M0 0 C0 0.66 0 1.32 0 2 C1.65 2.66 3.3 3.32 5 4 C5 7.42085146 4.21894397 9.81720186 3 13 C2.34 13.66 1.68 14.32 1 15 C0.690625 15.845625 0.38125 16.69125 0.0625 17.5625 C-0.288125 18.366875 -0.63875 19.17125 -1 20 C-2.485 20.495 -2.485 20.495 -4 21 C-4.70151152 22.3153341 -5.36525925 23.65117592 -6 25 C-7.5 26.75 -7.5 26.75 -9 28 C-9.66 28 -10.32 28 -11 28 C-11 28.66 -11 29.32 -11 30 C-13 32 -13 32 -16.2578125 32.1953125 C-18.17207031 32.16050781 -18.17207031 32.16050781 -20.125 32.125 C-22.04699219 32.09792969 -22.04699219 32.09792969 -24.0078125 32.0703125 C-24.99523437 32.04710937 -25.98265625 32.02390625 -27 32 C-27.33 31.34 -27.66 30.68 -28 30 C-25.525 29.505 -25.525 29.505 -23 29 C-22.8020995 25.12545823 -22.6185291 21.2503638 -22.4375 17.375 C-22.38142578 16.28058594 -22.32535156 15.18617187 -22.26757812 14.05859375 C-22.21923828 12.99511719 -22.17089844 11.93164062 -22.12109375 10.8359375 C-22.0739624 9.86188965 -22.02683105 8.8878418 -21.97827148 7.88427734 C-22.00131834 4.82500193 -22.42215975 2.0000999 -23 -1 C-35.01050691 -0.12399374 -47.00427196 0.94385939 -59 2 C-59 2.66 -59 3.32 -59 4 C-64.46166199 7.13539855 -68.47369936 8.34035548 -74.734375 8.71484375 C-77.6601916 9.08309308 -79.5753128 10.38354187 -82 12 C-82.99 11.67 -83.98 11.34 -85 11 C-58.28147622 -3.48644961 -29.63209485 -7.62379139 0 0 Z " fill="#47FDE4" transform="translate(273,74)"/>
<path d="M0 0 C0.99 0 1.98 0 3 0 C3 0.66 3 1.32 3 2 C9.36719278 3.91015784 15.48897267 4.40928914 22.12109375 4.75390625 C25 5 25 5 26 6 C26.85029818 13.04802712 27.49538962 20.02151509 26 27 C15.91178933 24.67195138 8.51655616 16.3266329 3 8 C1.71533624 5.33152058 0.84456131 2.85039442 0 0 Z " fill="#47EAE5" transform="translate(145,149)"/>
<path d="M0 0 C4.75467654 3.98364791 6.8799135 7.87361385 8 14 C8.47427764 21.02592691 6.47750238 25.6953406 2.47265625 31.3828125 C1.98667969 31.91648437 1.50070312 32.45015625 1 33 C0.34 33 -0.32 33 -1 33 C-1 33.66 -1 34.32 -1 35 C-5.92506929 38.76786316 -10.49530451 38.61898506 -16.4921875 38.46875 C-24.98068284 37.33442991 -29.67674076 31.51557047 -34.9375 25.2578125 C-38.2243029 21.65975933 -42.0563458 18.83906587 -46 16 C-45.34 15.67 -44.68 15.34 -44 15 C-37.25806452 17.48387097 -37.25806452 17.48387097 -36 20 C-35.01 20.33 -34.02 20.66 -33 21 C-32.67 22.65 -32.34 24.3 -32 26 C-31.34 26 -30.68 26 -30 26 C-30 26.66 -30 27.32 -30 28 C-29.34 28 -28.68 28 -28 28 C-28 28.66 -28 29.32 -28 30 C-27.34 30 -26.68 30 -26 30 C-26 30.66 -26 31.32 -26 32 C-25.236875 31.938125 -24.47375 31.87625 -23.6875 31.8125 C-21 32 -21 32 -19.64453125 33.4921875 C-17.40415989 35.54630471 -15.99397085 35.37041908 -13 35.3125 C-11.700625 35.30669922 -11.700625 35.30669922 -10.375 35.30078125 C-7.73582063 35.1458217 -7.73582063 35.1458217 -5 33 C-4.01 33 -3.02 33 -2 33 C-1.67 32.01 -1.34 31.02 -1 30 C-0.34 30 0.32 30 1 30 C1.185625 28.6696875 1.185625 28.6696875 1.375 27.3125 C1.94412736 24.29612498 2.76614436 21.79673946 4 19 C3.67 19 3.34 19 3 19 C3.03480469 18.27554687 3.06960938 17.55109375 3.10546875 16.8046875 C3.26809641 10.99655674 3.13017724 7.08653801 0 2 C0 1.34 0 0.68 0 0 Z " fill="#5FC1F0" transform="translate(261,251)"/>
<path d="M0 0 C0 0.66 0 1.32 0 2 C0.99 2.495 0.99 2.495 2 3 C-3.625 4.125 -3.625 4.125 -7 3 C-8.72536537 2.62775582 -10.45500309 2.2749994 -12.1875 1.9375 C-13.08855469 1.76089844 -13.98960937 1.58429688 -14.91796875 1.40234375 C-15.94857422 1.20318359 -15.94857422 1.20318359 -17 1 C-17 0.34 -17 -0.32 -17 -1 C-26.33656548 -1.23770605 -35.48037965 -0.49795768 -44.75 0.5 C-46.14056639 0.64509411 -47.53119128 0.7896286 -48.921875 0.93359375 C-52.28186397 1.2835926 -55.64116052 1.63916467 -59 2 C-59 2.66 -59 3.32 -59 4 C-64.46166199 7.13539855 -68.47369936 8.34035548 -74.734375 8.71484375 C-77.6601916 9.08309308 -79.5753128 10.38354187 -82 12 C-82.99 11.67 -83.98 11.34 -85 11 C-58.28147622 -3.48644961 -29.63209485 -7.62379139 0 0 Z " fill="#52F1EB" transform="translate(273,74)"/>
<path d="M0 0 C1.29679687 -0.01224609 2.59359375 -0.02449219 3.9296875 -0.03710938 C5.18265625 -0.03904297 6.435625 -0.04097656 7.7265625 -0.04296875 C8.85916504 -0.04707764 9.99176758 -0.05118652 11.15869141 -0.05541992 C15.5428547 0.27570521 19.14582233 0.92797226 22.2734375 4.1328125 C22.76070312 4.85210937 23.24796875 5.57140625 23.75 6.3125 C24.25273437 7.03695313 24.75546875 7.76140625 25.2734375 8.5078125 C25.63695312 9.06210937 26.00046875 9.61640625 26.375 10.1875 C26.045 10.8475 25.715 11.5075 25.375 12.1875 C21.94808643 10.95000343 19.02197231 9.7364363 16.375 7.1875 C16.375 5.8675 16.375 4.5475 16.375 3.1875 C12.70835046 3.15817763 9.0417316 3.14059363 5.375 3.125 C4.34503906 3.11662109 3.31507813 3.10824219 2.25390625 3.09960938 C-3.46200193 3.08140585 -8.9937558 3.15119464 -14.625 4.1875 C-16.99658027 6.2160831 -16.99658027 6.2160831 -17.625 10.1875 C-13.17 11.1775 -13.17 11.1775 -8.625 12.1875 C-9.5 20.9375 -9.5 20.9375 -10.625 23.1875 C-22.625 6.6226585 -22.625 6.6226585 -22.625 1.1875 C-15.09075107 -0.004628 -7.61609107 0.00380805 0 0 Z " fill="#339ECA" transform="translate(159.625,324.8125)"/>
<path d="M0 0 C4.49457587 1.46761661 7.75984913 3.97830424 11.3125 7 C12.13717773 7.67675781 12.13717773 7.67675781 12.97851562 8.3671875 C14.36189971 9.52888643 15.68650591 10.75982695 17 12 C17 12.66 17 13.32 17 14 C17.99 14.33 18.98 14.66 20 15 C20 15.66 20 16.32 20 17 C20.99 17.33 21.98 17.66 23 18 C38 35.34285714 38 35.34285714 38 42 C32.06 42 26.12 42 20 42 C20 41.34 20 40.68 20 40 C25.94 39.505 25.94 39.505 32 39 C31.525625 37.7625 31.05125 36.525 30.5625 35.25 C29.7318053 33.08297036 29.01250715 31.06061155 28.54296875 28.78515625 C28.36378906 28.19605469 28.18460937 27.60695313 28 27 C27.2575 26.731875 26.515 26.46375 25.75 26.1875 C21.87232324 24.51304867 20.02020857 21.64497205 18 18 C18 17.34 18 16.68 18 16 C17.278125 15.731875 16.55625 15.46375 15.8125 15.1875 C13.00233617 14.00098638 10.51583443 12.72514361 8 11 C8 10.34 8 9.68 8 9 C7.34 9 6.68 9 6 9 C5.54625 8.236875 5.0925 7.47375 4.625 6.6875 C2.99474531 3.99130956 1.60264108 2.70517864 -1 1 C-0.67 0.67 -0.34 0.34 0 0 Z " fill="#A1F3E1" transform="translate(308,91)"/>
<path d="M0 0 C2.68756955 -0.02720824 5.37485798 -0.0469388 8.0625 -0.0625 C8.81466797 -0.07087891 9.56683594 -0.07925781 10.34179688 -0.08789062 C18.0446861 -0.12123647 26.79536771 -0.04890517 32.6875 5.625 C33.120625 6.07875 33.55375 6.5325 34 7 C36.10332891 7.71447643 36.10332891 7.71447643 38 8 C38 8.66 38 9.32 38 10 C40.33214148 11.20628008 42.49642139 12.1654738 45 13 C45.53625 13.7425 46.0725 14.485 46.625 15.25 C49.84097716 18.97376303 53.64692039 20.81415874 58 23 C57.505 24.485 57.505 24.485 57 26 C57.99 25.67 58.98 25.34 60 25 C60 25.66 60 26.32 60 27 C64.29 27.33 68.58 27.66 73 28 C73 28.33 73 28.66 73 29 C70.39521117 29.0809313 67.79293347 29.14045434 65.1875 29.1875 C64.08051758 29.22520508 64.08051758 29.22520508 62.95117188 29.26367188 C57.49005469 29.33780469 57.49005469 29.33780469 54.98828125 27.61328125 C54 26 54 26 54 24 C53.34 24 52.68 24 52 24 C50.88653572 22.85173996 49.77316434 21.70338973 48.66015625 20.5546875 C34.92059076 7.68798853 18.10647716 3.05206741 0 1 C0 0.67 0 0.34 0 0 Z " fill="#A4F3E3" transform="translate(247,105)"/>
<path d="M0 0 C3.66169192 0.55580106 3.66169192 0.55580106 5.15673828 2.51879883 C5.45821777 3.15841553 5.75969727 3.79803223 6.0703125 4.45703125 C6.40933594 5.15763672 6.74835938 5.85824219 7.09765625 6.58007812 C7.60619141 7.68512695 7.60619141 7.68512695 8.125 8.8125 C8.47175781 9.53759766 8.81851563 10.26269531 9.17578125 11.00976562 C9.82434619 12.36777612 10.46710545 13.72858605 11.10205078 15.09301758 C11.39837402 15.72232178 11.69469727 16.35162598 12 17 C12.30534668 17.71889404 12.61069336 18.43778809 12.92529297 19.1784668 C13.93341677 21.34246127 13.93341677 21.34246127 17 22 C16.67 22.99 16.34 23.98 16 25 C15.34 25 14.68 25 14 25 C13.67 23.35 13.34 21.7 13 20 C12.01 19.67 11.02 19.34 10 19 C9.67 18.34 9.34 17.68 9 17 C4.50240185 15.98167589 1.99050941 15.7096414 -2 18 C-2.20852314 11.59370576 -2.1583195 6.07027358 0 0 Z M5 14 C6 16 6 16 6 16 Z " fill="#24A6BE" transform="translate(139,143)"/>
<path d="M0 0 C0.99 0.33 1.98 0.66 3 1 C2.01 1.33 1.02 1.66 0 2 C0.33 3.65 0.66 5.3 1 7 C0.01 7.66 -0.98 8.32 -2 9 C-2.825 9.70125 -3.65 10.4025 -4.5 11.125 C-7 13 -7 13 -10 13 C-10 13.99 -10 14.98 -10 16 C-11.4375 17.5625 -11.4375 17.5625 -13 19 C-13.33 19.66 -13.66 20.32 -14 21 C-14.66 21 -15.32 21 -16 21 C-15.67 21.99 -15.34 22.98 -15 24 C-15.66 24.33 -16.32 24.66 -17 25 C-16.938125 25.680625 -16.87625 26.36125 -16.8125 27.0625 C-17.19611761 33.07250928 -20.35110255 38.32485015 -24 43 C-24.99 43 -25.98 43 -27 43 C-23.47690467 25.70480473 -11.95403946 12.35250744 0 0 Z " fill="#86F4E1" transform="translate(167,100)"/>
<path d="M0 0 C2 0 2 0 3.5625 1.3125 C5 3 5 3 6 6 C6.99 6.33 7.98 6.66 9 7 C11.67676547 5.62750037 11.67676547 5.62750037 14 4 C13.67 5.32 13.34 6.64 13 8 C13.66 8.33 14.32 8.66 15 9 C14.34 9 13.68 9 13 9 C16.56743326 12.56743326 20.9503104 13.93930933 25.90234375 14.0859375 C27.8294756 14.03022541 29.75604434 13.9411001 31.6796875 13.8125 C32.44539063 13.874375 33.21109375 13.93625 34 14 C34.66 14.99 35.32 15.98 36 17 C37.051875 17 38.10375 17 39.1875 17 C43.70767633 17 45.99415996 18.0379559 50 20 C47.36145159 21.79131556 46.14069344 22.01607606 42.91894531 21.64794922 C41.73397461 21.36967285 40.54900391 21.09139648 39.328125 20.8046875 C38.36625275 20.58161423 38.36625275 20.58161423 37.38494873 20.35403442 C36.02848159 20.03601783 34.67360915 19.71113175 33.3203125 19.37988281 C31.27464017 18.88100895 29.22431616 18.40764533 27.171875 17.9375 C15.81990815 15.27284339 6.68325063 12.20075096 0 2 C0 1.34 0 0.68 0 0 Z " fill="#4195BF" transform="translate(225,196)"/>
<path d="M0 0 C3.24127778 1.55600344 6.28234207 3.35341522 9.359375 5.2109375 C16.69525801 9.51135951 24.34440198 12.97107996 32.09277344 16.453125 C39.04209819 19.58604759 45.65832487 22.75644127 52 27 C51.505 28.485 51.505 28.485 51 30 C48.525 29.01 48.525 29.01 46 28 C46 27.34 46 26.68 46 26 C45.25234375 25.80664062 44.5046875 25.61328125 43.734375 25.4140625 C42.74953125 25.15367187 41.7646875 24.89328125 40.75 24.625 C39.28820312 24.24214844 39.28820312 24.24214844 37.796875 23.8515625 C33.66485955 22.59349076 31.51352451 21.58109353 28.625 18.3125 C26.16719863 15.60152156 26.16719863 15.60152156 22.6875 16.1875 C21.800625 16.455625 20.91375 16.72375 20 17 C20 16.01 20 15.02 20 14 C19.113125 13.7525 18.22625 13.505 17.3125 13.25 C13.8622647 11.94802442 11.82709289 10.31966596 9 8 C7.7315625 7.5359375 7.7315625 7.5359375 6.4375 7.0625 C3.28106695 5.68661893 1.9360599 3.79653096 0 1 C0 0.67 0 0.34 0 0 Z " fill="#5BDCEF" transform="translate(268,183)"/>
<path d="M0 0 C0.66 0.33 1.32 0.66 2 1 C0.88200014 2.33920838 -0.24461897 3.67122556 -1.375 5 C-2.00148437 5.7425 -2.62796875 6.485 -3.2734375 7.25 C-3.84320313 7.8275 -4.41296875 8.405 -5 9 C-5.66 9 -6.32 9 -7 9 C-7.25910156 9.54398438 -7.51820313 10.08796875 -7.78515625 10.6484375 C-9.20475224 13.39633714 -10.82022811 15.98867292 -12.4375 18.625 C-15.57719764 23.97942211 -17.57175839 28.98529239 -19 35 C-19.20367187 35.79148438 -19.40734375 36.58296875 -19.6171875 37.3984375 C-20.09440108 39.26153163 -20.54985827 41.1301805 -21 43 C-21.33 43 -21.66 43 -22 43 C-22.495 38.05 -22.495 38.05 -23 33 C-23.98742187 32.95101562 -24.97484375 32.90203125 -25.9921875 32.8515625 C-27.27351562 32.77679688 -28.55484375 32.70203125 -29.875 32.625 C-31.15117187 32.55539063 -32.42734375 32.48578125 -33.7421875 32.4140625 C-37 32 -37 32 -39 30 C-35.52487282 28.84162427 -33.86329714 29.22734057 -30.3125 29.9375 C-28.82169922 30.22947266 -28.82169922 30.22947266 -27.30078125 30.52734375 C-26.54152344 30.68332031 -25.78226563 30.83929688 -25 31 C-24.78537109 30.07960937 -24.78537109 30.07960937 -24.56640625 29.140625 C-23.9729904 26.89792233 -23.09269725 25.03970153 -22 23 C-21.01 23 -20.02 23 -19 23 C-18.34 22.67 -17.68 22.34 -17 22 C-16.67 21.01 -16.34 20.02 -16 19 C-15.34 19 -14.68 19 -14 19 C-13.90332031 18.21496094 -13.90332031 18.21496094 -13.8046875 17.4140625 C-12.63140607 13.8942182 -10.39288808 11.25322623 -8.125 8.375 C-7.45404297 7.49714844 -7.45404297 7.49714844 -6.76953125 6.6015625 C-4.65555218 3.88269856 -2.88848201 1.92565467 0 0 Z " fill="#69FCE2" transform="translate(193,122)"/>
<path d="M0 0 C0.495 0.99 0.495 0.99 1 2 C1.66 2 2.32 2 3 2 C2.34 3.32 1.68 4.64 1 6 C0.34 6 -0.32 6 -1 6 C-1.33 7.32 -1.66 8.64 -2 10 C-1.34 10.33 -0.68 10.66 0 11 C-0.61875 11.9075 -1.2375 12.815 -1.875 13.75 C-3.97453232 16.72776356 -3.97453232 16.72776356 -4.875 19.1875 C-6.59329967 21.95587169 -9.08461585 22.73244167 -12 24 C-11.67 26.31 -11.34 28.62 -11 31 C-11.66 31.33 -12.32 31.66 -13 32 C-13.33 30.68 -13.66 29.36 -14 28 C-17.43260721 29.42838339 -19.07954379 31.12608264 -21.3125 34.0625 C-23.70948265 36.9316156 -25.17228982 38.50457761 -28.9375 39 C-29.948125 39 -30.95875 39 -32 39 C-32 39.66 -32 40.32 -32 41 C-34.64 41.99 -37.28 42.98 -40 44 C-39 41 -39 41 -36.8125 39.640625 C-35.4203125 38.95226562 -35.4203125 38.95226562 -34 38.25 C-18.73853836 30.19588669 -5.54614693 16.63844078 0 0 Z " fill="#3F8BB4" transform="translate(315,311)"/>
<path d="M0 0 C0.66 0.33 1.32 0.66 2 1 C0.37660195 2.70884005 -1.29319053 4.37446717 -3 6 C-3.66 6 -4.32 6 -5 6 C-5.33 6.99 -5.66 7.98 -6 9 C-7.65 9.33 -9.3 9.66 -11 10 C-11.33 11.32 -11.66 12.64 -12 14 C-10.02 14.66 -8.04 15.32 -6 16 C-6.33 16.66 -6.66 17.32 -7 18 C-11.47540984 19.26229508 -11.47540984 19.26229508 -14 18 C-16.00800456 18.28112064 -18.01014051 18.61067967 -20 19 C-20 19.66 -20 20.32 -20 21 C-21.65 21 -23.3 21 -25 21 C-25.0625 18.75 -25.0625 18.75 -24 16 C-21.77665944 14.81539708 -19.50077611 13.95191966 -17.15234375 13.04296875 C-14.279602 11.65091422 -13.42875543 9.7823132 -12 7 C-9.8125 6.1875 -9.8125 6.1875 -8 6 C-8 5.34 -8 4.68 -8 4 C-6.71349294 3.30289269 -5.42059335 2.61757124 -4.125 1.9375 C-3.40570313 1.55464844 -2.68640625 1.17179687 -1.9453125 0.77734375 C-0.98238281 0.39255859 -0.98238281 0.39255859 0 0 Z " fill="#3EFBEE" transform="translate(196,82)"/>
<path d="M0 0 C0.33 0 0.66 0 1 0 C1.57382201 18.99350861 1.2630469 36.50695391 -7 54 C-7.66 54 -8.32 54 -9 54 C-8.51363505 49.21741134 -7.88472061 45.43463672 -6 41 C-4.25000899 35.13238307 -3.62077718 29.5510401 -3.24609375 23.44140625 C-3 21 -3 21 -2 20 C-1.77376479 18.51562191 -1.60587035 17.02222575 -1.46484375 15.52734375 C-1.33432617 14.17866211 -1.33432617 14.17866211 -1.20117188 12.80273438 C-1.0706543 11.38444336 -1.0706543 11.38444336 -0.9375 9.9375 C-0.84662109 8.98810547 -0.75574219 8.03871094 -0.66210938 7.06054688 C-0.43743502 4.70737865 -0.21691818 2.35389381 0 0 Z " fill="#5AC4EB" transform="translate(355,274)"/>
<path d="M0 0 C0.86625 0.804375 1.7325 1.60875 2.625 2.4375 C15.11076211 13.0819275 29.01315408 19.51350701 45 23 C43.1953125 24.5546875 43.1953125 24.5546875 41 26 C37.875 25.125 37.875 25.125 35 24 C34.01 24.495 34.01 24.495 33 25 C32.505 23.02 32.505 23.02 32 21 C31.39414063 20.92523438 30.78828125 20.85046875 30.1640625 20.7734375 C23.05955509 19.65857634 17.92411869 17.0082335 12 13 C10.68 14.32 9.36 15.64 8 17 C7.20046862 13.71303767 6.90341064 12.28976808 8 9 C7.401875 8.731875 6.80375 8.46375 6.1875 8.1875 C3.96133587 6.9790109 2.58687016 5.96469639 1 4 C0.63317461 2.67548952 0.29551001 1.34222305 0 0 Z " fill="#3D85B3" transform="translate(186,335)"/>
<path d="M0 0 C1.32 0.66 2.64 1.32 4 2 C3.54857119 3.29409592 3.08858979 4.58521059 2.625 5.875 C2.24214844 6.95394531 2.24214844 6.95394531 1.8515625 8.0546875 C1 10 1 10 -1 12 C-1.309375 12.845625 -1.61875 13.69125 -1.9375 14.5625 C-2.4634375 15.7690625 -2.4634375 15.7690625 -3 17 C-3.99 17.33 -4.98 17.66 -6 18 C-6.70151152 19.3153341 -7.36525925 20.65117592 -8 22 C-9.5 23.75 -9.5 23.75 -11 25 C-11.66 25 -12.32 25 -13 25 C-13 25.66 -13 26.32 -13 27 C-15 29 -15 29 -18.2578125 29.1953125 C-19.53398437 29.17210938 -20.81015625 29.14890625 -22.125 29.125 C-24.04699219 29.09792969 -24.04699219 29.09792969 -26.0078125 29.0703125 C-27.48894531 29.03550781 -27.48894531 29.03550781 -29 29 C-29.33 28.34 -29.66 27.68 -30 27 C-29.0821875 26.92523438 -28.164375 26.85046875 -27.21875 26.7734375 C-19.57280974 25.95422962 -13.17758786 25.12306043 -8 19 C-7.04452419 16.32891902 -7.04452419 16.32891902 -7 14 C-6.34 13.67 -5.68 13.34 -5 13 C-4.05431417 10.84211688 -3.19047955 8.64787878 -2.375 6.4375 C-1.92898438 5.23996094 -1.48296875 4.04242188 -1.0234375 2.80859375 C-0.68570312 1.88175781 -0.34796875 0.95492187 0 0 Z " fill="#58F9E0" transform="translate(275,77)"/>
<path d="M0 0 C0.69738281 0.19529297 1.39476562 0.39058594 2.11328125 0.59179688 C3.82798973 1.0733246 5.53934877 1.56675157 7.25 2.0625 C6.26 2.5575 6.26 2.5575 5.25 3.0625 C4.59227572 6.09184491 4.59227572 6.09184491 4.25 9.0625 C-6.29285714 7.07107143 -6.29285714 7.07107143 -10.75 4.0625 C-11.625 1.375 -11.625 1.375 -11.75 -0.9375 C-7.65913548 -2.61391098 -4.03488982 -1.1784319 0 0 Z " fill="#319AC8" transform="translate(283.75,211.9375)"/>
<path d="M0 0 C0.33 0.66 0.66 1.32 1 2 C3.31 2 5.62 2 8 2 C8 2.33 8 2.66 8 3 C6.72125 3.12375 5.4425 3.2475 4.125 3.375 C0.65209064 3.69042399 0.65209064 3.69042399 -2 6 C-2.33 7.32 -2.66 8.64 -3 10 C1.455 10.99 1.455 10.99 6 12 C5.125 20.75 5.125 20.75 4 23 C-8 6.4351585 -8 6.4351585 -8 1 C-5.36 0.67 -2.72 0.34 0 0 Z " fill="#3CABCB" transform="translate(145,325)"/>
<path d="M0 0 C13.44776015 1.57477623 27.17800359 3.20162894 38 12 C37.34 12.33 36.68 12.66 36 13 C34.30078125 12.1875 34.30078125 12.1875 32.3125 11 C28.035197 8.71668651 25.64297271 8.83925682 21 10 C21 9.34 21 8.68 21 8 C18.03 8 15.06 8 12 8 C11.67 6.35 11.34 4.7 11 3 C10.06027344 3.05220703 10.06027344 3.05220703 9.1015625 3.10546875 C8.28429687 3.13253906 7.46703125 3.15960938 6.625 3.1875 C5.81289062 3.22230469 5.00078125 3.25710937 4.1640625 3.29296875 C3.44992188 3.19628906 2.73578125 3.09960938 2 3 C1.34 2.01 0.68 1.02 0 0 Z " fill="#54C0E9" transform="translate(223,238)"/>
<path d="M0 0 C1.7578125 0.90234375 1.7578125 0.90234375 2.7578125 1.90234375 C5.08599214 2.26995106 7.419651 2.60475956 9.7578125 2.90234375 C9.7578125 3.23234375 9.7578125 3.56234375 9.7578125 3.90234375 C3.76134612 4.21794724 0.28891463 3.47035545 -5.2421875 0.90234375 C-10.21566042 -0.78618101 -14.72744923 -1.23611435 -19.95703125 -1.1015625 C-22.26592468 -1.09761567 -24.45297086 -1.30702527 -26.7421875 -1.59765625 C-31.26958357 -2.16457886 -35.68191357 -2.17004155 -40.2421875 -2.09765625 C-40.5721875 -2.75765625 -40.9021875 -3.41765625 -41.2421875 -4.09765625 C-29.12911684 -8.13534647 -11.29075117 -4.93737469 0 0 Z " fill="#3DFDE3" transform="translate(231.2421875,101.09765625)"/>
<path d="M0 0 C0.66 0 1.32 0 2 0 C2.15855469 1.01578125 2.31710938 2.0315625 2.48046875 3.078125 C4.21816857 13.56442098 6.8975031 22.89475436 12.375 32.125 C12.91125 33.07375 13.4475 34.0225 14 35 C13.67 35.66 13.34 36.32 13 37 C12.34 36.67 11.68 36.34 11 36 C11 35.34 11 34.68 11 34 C10.34 34 9.68 34 9 34 C8.74605469 33.40832031 8.49210938 32.81664062 8.23046875 32.20703125 C7.71419922 31.02173828 7.71419922 31.02173828 7.1875 29.8125 C6.85105469 29.03519531 6.51460937 28.25789063 6.16796875 27.45703125 C5.04216008 24.94872281 5.04216008 24.94872281 3.4375 22.59765625 C-0.15492898 16.10590279 -0.34077927 7.32675424 0 0 Z " fill="#3D8EBB" transform="translate(169,176)"/>
<path d="M0 0 C0.71414062 0.72445312 1.42828125 1.44890625 2.1640625 2.1953125 C10.42841548 10.36859823 18.18701314 16.08692778 28.84765625 20.625 C32 22 32 22 35 24 C29.72 24 24.44 24 19 24 C19 23.67 19 23.34 19 23 C20.98 22.67 22.96 22.34 25 22 C20.545 20.02 20.545 20.02 16 18 C16 17.34 16 16.68 16 16 C14.68 16 13.36 16 12 16 C10.72042755 14.58918935 9.44988827 13.16443642 8.296875 11.6484375 C6.8703274 9.75482383 6.8703274 9.75482383 4.3125 7.4375 C1.99893075 4.99887295 0.99788425 3.17508625 0 0 Z " fill="#3A90BD" transform="translate(183,213)"/>
<path d="M0 0 C-2.79669105 1.47160737 -5.556774 2.59110632 -8.5625 3.5625 C-9.32691406 3.81128906 -10.09132812 4.06007812 -10.87890625 4.31640625 C-11.57886719 4.54199219 -12.27882812 4.76757812 -13 5 C-13.99 5.33 -14.98 5.66 -16 6 C-15.938125 7.051875 -15.938125 7.051875 -15.875 8.125 C-16.01829999 11.42089973 -16.75363881 13.9533393 -18 17 C-18.66 17.33 -19.32 17.66 -20 18 C-20.4683265 20.58605332 -20.4683265 20.58605332 -20.625 23.5625 C-20.69976562 24.57441406 -20.77453125 25.58632812 -20.8515625 26.62890625 C-20.90054688 27.41136719 -20.94953125 28.19382813 -21 29 C-23.57425134 24.36429639 -23.74746628 19.96258532 -22.46484375 14.87890625 C-20.43098872 8.99962039 -17.77593217 4.79110574 -12.25 1.6875 C-8.01553674 -0.29441983 -4.6228671 -0.33020479 0 0 Z " fill="#4793B4" transform="translate(246,167)"/>
<path d="M0 0 C4.73344506 3.96585938 6.92866996 7.88087167 8 14 C8.05153816 19.02128882 7.68131606 23.65375123 5 28 C2.875 28.75 2.875 28.75 1 29 C1.309375 28.0925 1.61875 27.185 1.9375 26.25 C2.7272263 23.83436662 3.42949297 21.47219715 4 19 C3.67 19 3.34 19 3 19 C3.03480469 18.27554687 3.06960938 17.55109375 3.10546875 16.8046875 C3.26809641 10.99655674 3.13017724 7.08653801 0 2 C0 1.34 0 0.68 0 0 Z " fill="#4ACAF4" transform="translate(261,251)"/>
<path d="M0 0 C10.68239762 6.95597985 18.86051513 15.74427774 25 27 C24.67 27.66 24.34 28.32 24 29 C23.401875 28.360625 22.80375 27.72125 22.1875 27.0625 C20.09189663 24.79689611 20.09189663 24.79689611 17 24 C17.66 23.67 18.32 23.34 19 23 C19 22.34 19 21.68 19 21 C18.34 21 17.68 21 17 21 C15.75044948 19.52026913 14.50501595 18.03636965 13.30078125 16.51953125 C11.97226329 14.85377927 11.97226329 14.85377927 9.8125 13.375 C7.68459945 11.76073061 7.18451082 10.36902165 6 8 C5.154375 7.154375 4.30875 6.30875 3.4375 5.4375 C1 3 1 3 0 0 Z " fill="#58BCEB" transform="translate(320,210)"/>
<path d="M0 0 C0.66 0.33 1.32 0.66 2 1 C2 1.66 2 2.32 2 3 C3.32 3 4.64 3 6 3 C6 3.66 6 4.32 6 5 C6.721875 5.103125 7.44375 5.20625 8.1875 5.3125 C11.25938525 6.06340528 13.40185854 7.21841728 16 9 C16 9.33 16 9.66 16 10 C10.39 10 4.78 10 -1 10 C-1.33 9.34 -1.66 8.68 -2 8 C-1.34 7.34 -0.68 6.68 0 6 C-0.28604898 4.32457024 -0.61781233 2.65614657 -1 1 C-0.67 0.67 -0.34 0.34 0 0 Z " fill="#2184B9" transform="translate(193,226)"/>
<path d="M0 0 C5.93817497 -0.15591099 11.41076382 0.39130352 17.25 1.4375 C18.43335938 1.63956055 18.43335938 1.63956055 19.640625 1.84570312 C23.132738 2.45033418 26.56780625 3.11029634 30 4 C30 4.66 30 5.32 30 6 C30.66 6.33 31.32 6.66 32 7 C26.375 8.125 26.375 8.125 23 7 C21.27463463 6.62775582 19.54499691 6.2749994 17.8125 5.9375 C16.91144531 5.76089844 16.01039063 5.58429688 15.08203125 5.40234375 C14.39496094 5.26957031 13.70789063 5.13679688 13 5 C13 4.34 13 3.68 13 3 C11.96875 2.855625 10.9375 2.71125 9.875 2.5625 C6.57450187 2.08339543 3.28731659 1.56124917 0 1 C0 0.67 0 0.34 0 0 Z " fill="#63F0E7" transform="translate(243,70)"/>
<path d="M0 0 C6.51900313 1.50438534 12.40353583 3.98439887 18.375 6.9375 C19.06464844 7.27330078 19.75429688 7.60910156 20.46484375 7.95507812 C24.25558269 9.87270242 27.16356332 11.74900719 30 15 C27.23723823 14.47731534 24.6739124 13.89130413 22 13 C22 12.34 22 11.68 22 11 C21.01 11.33 20.02 11.66 19 12 C15.875 11.25 15.875 11.25 13 10 C12.67 9.01 12.34 8.02 12 7 C10.64462294 6.32231147 9.26629953 5.6890187 7.87109375 5.09765625 C7.06800781 4.75605469 6.26492188 4.41445312 5.4375 4.0625 C4.63183594 3.72347656 3.82617188 3.38445312 2.99609375 3.03515625 C1 2 1 2 0 0 Z " fill="#8EF8DE" transform="translate(278,76)"/>
<path d="M0 0 C0.66 0 1.32 0 2 0 C0.66573603 5.62140723 -1.46098184 9.95835925 -4.5625 14.8125 C-5.21871338 15.85374023 -5.21871338 15.85374023 -5.88818359 16.91601562 C-9.71072653 22.83745214 -14.02169822 27.99764845 -19 33 C-19.33 31.68 -19.66 30.36 -20 29 C-19.38125 28.7525 -18.7625 28.505 -18.125 28.25 C-14.74963396 26.26449057 -14.2020372 23.60611161 -13 20 C-11.83017578 19.1028125 -11.83017578 19.1028125 -10.63671875 18.1875 C-7.61928731 15.68414947 -6.45990641 13.53331134 -4.8125 10 C-4.07966797 8.453125 -4.07966797 8.453125 -3.33203125 6.875 C-2.89246094 5.92625 -2.45289063 4.9775 -2 4 C-1.33861207 2.66404033 -0.67432569 1.32947624 0 0 Z " fill="#438EBD" transform="translate(345,328)"/>
<path d="M0 0 C3.71599191 -0.20086443 4.77208445 -0.1519437 8 2 C8.763125 1.95875 9.52625 1.9175 10.3125 1.875 C14.08836139 2.05062146 16.05885442 3.7272966 19 6 C19.33 6.66 19.66 7.32 20 8 C21.64363134 8.72159424 23.31050386 9.39351421 25 10 C25 11.65 25 13.3 25 15 C24.32195312 14.55269531 23.64390625 14.10539063 22.9453125 13.64453125 C16.80087884 9.65320246 10.6123622 6.14706008 4 3 C2.66530056 2.33607258 1.33150854 1.67030384 0 1 C0 0.67 0 0.34 0 0 Z " fill="#53ABDB" transform="translate(273,217)"/>
<path d="M0 0 C0.99 0.33 1.98 0.66 3 1 C2.34 2.65 1.68 4.3 1 6 C1.99 6 2.98 6 4 6 C4.66 7.65 5.32 9.3 6 11 C5.34 11 4.68 11 4 11 C3.731875 11.598125 3.46375 12.19625 3.1875 12.8125 C2.00912025 14.98319954 0.85454914 16.38734857 -1 18 C-1.33 18 -1.66 18 -2 18 C-2.20852314 11.59370576 -2.1583195 6.07027358 0 0 Z " fill="#25A4C4" transform="translate(139,143)"/>
<path d="M0 0 C1.98 0 3.96 0 6 0 C6.2475 0.556875 6.495 1.11375 6.75 1.6875 C9.66548083 7.08113953 12.50811917 9.62808881 18.25 11.8125 C19.32765625 12.23144531 20.4053125 12.65039062 21.515625 13.08203125 C22.74539062 13.53642578 22.74539062 13.53642578 24 14 C24 14.66 24 15.32 24 16 C14.6229061 13.41790168 6.95851692 8.44530105 -1 3 C-0.67 2.01 -0.34 1.02 0 0 Z " fill="#57C0ED" transform="translate(165,238)"/>
<path d="M0 0 C2.65245581 1.79423683 5.00208012 3.854759 7.375 6 C8.00277344 6.5465625 8.63054687 7.093125 9.27734375 7.65625 C13.83723456 11.67446911 13.83723456 11.67446911 15 14 C10.52792762 12.59449154 8.19950835 10.3635857 5 7 C1.26105457 3.26105457 -2.95641641 3.31252975 -8 3 C-8 2.34 -8 1.68 -8 1 C-8.99 0.67 -9.98 0.34 -11 0 C-7.19606935 -2.73883007 -4.02431723 -1.76840664 0 0 Z " fill="#5CD3EA" transform="translate(253,169)"/>
<path d="M0 0 C2.3223428 2.8762349 3.86565842 5.63780422 5.25 9.0625 C5.60578125 9.91972656 5.9615625 10.77695313 6.328125 11.66015625 C7 14 7 14 6 17 C4.02 16.34 2.04 15.68 0 15 C-1.5111995 9.96266834 -0.64599773 5.11828973 0 0 Z " fill="#46C1F5" transform="translate(345,239)"/>
<path d="M0 0 C0.66 0.33 1.32 0.66 2 1 C0.88200014 2.33920838 -0.24461897 3.67122556 -1.375 5 C-2.31472656 6.11375 -2.31472656 6.11375 -3.2734375 7.25 C-4.12808594 8.11625 -4.12808594 8.11625 -5 9 C-5.66 9 -6.32 9 -7 9 C-7.2578125 9.53753906 -7.515625 10.07507813 -7.78125 10.62890625 C-9.78751771 14.53212579 -12.09558476 18.25976175 -14.34375 22.02734375 C-15.80285419 24.64616046 -16.96565441 27.19175173 -18 30 C-19.231394 27.53721199 -19.07159196 25.7204945 -19 23 C-18.34 22.67 -17.68 22.34 -17 22 C-16.67 21.01 -16.34 20.02 -16 19 C-15.34 19 -14.68 19 -14 19 C-13.90332031 18.21496094 -13.90332031 18.21496094 -13.8046875 17.4140625 C-12.63140607 13.8942182 -10.39288808 11.25322623 -8.125 8.375 C-7.67769531 7.78976563 -7.23039063 7.20453125 -6.76953125 6.6015625 C-4.65555218 3.88269856 -2.88848201 1.92565467 0 0 Z " fill="#9DF1E3" transform="translate(193,122)"/>
<path d="M0 0 C1.21236328 0.01353516 1.21236328 0.01353516 2.44921875 0.02734375 C3.37154297 0.04474609 3.37154297 0.04474609 4.3125 0.0625 C0.02801574 3.42888049 -3.13039094 5.2206131 -8.625 5.5 C-12.78224865 5.82402085 -15.18663423 6.72858949 -18.6875 9.0625 C-19.6775 8.7325 -20.6675 8.4025 -21.6875 8.0625 C-19.417884 6.91420023 -17.14689222 5.76878022 -14.875 4.625 C-14.23240234 4.29951172 -13.58980469 3.97402344 -12.92773438 3.63867188 C-8.4280545 1.37717474 -5.04085111 -0.07305581 0 0 Z " fill="#59F4F2" transform="translate(209.6875,76.9375)"/>
<path d="M0 0 C2.68756955 -0.02720824 5.37485798 -0.0469388 8.0625 -0.0625 C8.81466797 -0.07087891 9.56683594 -0.07925781 10.34179688 -0.08789062 C17.90064685 -0.12061292 24.14649869 0.78305041 31 4 C30.67 4.66 30.34 5.32 30 6 C23.66858864 5.36685886 17.57817501 4.0683074 11.3671875 2.69921875 C7.57653401 1.91206449 3.84948349 1.38494835 0 1 C0 0.67 0 0.34 0 0 Z " fill="#8FF6E4" transform="translate(247,105)"/>
<path d="M0 0 C0 0.66 0 1.32 0 2 C-0.78375 2.45375 -1.5675 2.9075 -2.375 3.375 C-5.09885204 4.71574697 -5.09885204 4.71574697 -5.8515625 6.96484375 C-7.42356749 9.7506077 -9.02806302 10.12917942 -12 11.1875 C-12.886875 11.51105469 -13.77375 11.83460937 -14.6875 12.16796875 C-15.450625 12.44253906 -16.21375 12.71710938 -17 13 C-17.99 13.495 -17.99 13.495 -19 14 C-17.51889439 10.23517848 -15.51225319 8.66563295 -12.1875 6.4375 C-11.33542969 5.85871094 -10.48335937 5.27992187 -9.60546875 4.68359375 C-2.35730858 0 -2.35730858 0 0 0 Z " fill="#7CF3EF" transform="translate(188,86)"/>
<path d="M0 0 C-0.99 0.495 -0.99 0.495 -2 1 C-2.65772428 4.02934491 -2.65772428 4.02934491 -3 7 C-7.455 6.01 -7.455 6.01 -12 5 C-11.67 3.68 -11.34 2.36 -11 1 C-6.9875739 -0.91502155 -4.25648179 -1.25190641 0 0 Z " fill="#37A3D4" transform="translate(291,214)"/>
<path d="M0 0 C1.32 0.33 2.64 0.66 4 1 C-3.39211623 6.93289329 -3.39211623 6.93289329 -7.75 8.625 C-11.01004427 10.0042495 -12.71277334 11.34681708 -15 14 C-15.33 12.35 -15.66 10.7 -16 9 C-13.64031256 6.90250005 -12.45383006 6.03094296 -9.25 5.8125 C-8.13625 5.9053125 -8.13625 5.9053125 -7 6 C-6.67 5.01 -6.34 4.02 -6 3 C-5.195625 2.87625 -4.39125 2.7525 -3.5625 2.625 C-2.716875 2.41875 -1.87125 2.2125 -1 2 C-0.67 1.34 -0.34 0.68 0 0 Z " fill="#80F5E0" transform="translate(201,115)"/>
<path d="M0 0 C2.38987298 7.16961895 -2.16744209 15.41361535 -5 22 C-5.66 22 -6.32 22 -7 22 C-6.51806084 17.26093161 -6.01534666 13.34890595 -4 9 C-3.29057383 7.39631633 -2.58232815 5.79211014 -1.875 4.1875 C-1.25090631 2.79126121 -0.62620916 1.39529129 0 0 Z " fill="#61BEEC" transform="translate(353,306)"/>
<path d="M0 0 C1.98 0.99 1.98 0.99 4 2 C4 2.66 4 3.32 4 4 C4.66 4.33 5.32 4.66 6 5 C4.02 9.455 4.02 9.455 2 14 C2.66 14.33 3.32 14.66 4 15 C3.01 15.33 2.02 15.66 1 16 C0.67 10.72 0.34 5.44 0 0 Z " fill="#368EB7" transform="translate(320,272)"/>
<path d="M0 0 C0.99 0.33 1.98 0.66 3 1 C2.01 1.33 1.02 1.66 0 2 C0.33 3.65 0.66 5.3 1 7 C0.01 7.66 -0.98 8.32 -2 9 C-3.67423683 10.32381517 -5.34211215 11.65576661 -7 13 C-7.66 12.67 -8.32 12.34 -9 12 C-6.36588975 7.55224006 -3.9036874 3.46994436 0 0 Z " fill="#76F6E7" transform="translate(167,100)"/>
<path d="M0 0 C1.88689425 0.23586178 3.77337621 0.47612925 5.65625 0.7421875 C9.43579682 1.15793765 13.20315761 1.07910088 17 1 C16.67 1.66 16.34 2.32 16 3 C11.52459016 4.26229508 11.52459016 4.26229508 9 3 C6.99199544 3.28112064 4.98985949 3.61067967 3 4 C3 4.66 3 5.32 3 6 C1.35 6 -0.3 6 -2 6 C-1.125 1.125 -1.125 1.125 0 0 Z " fill="#46FDE5" transform="translate(173,97)"/>
<path d="M0 0 C0.66 0 1.32 0 2 0 C2.53103519 3.45684768 3.04808907 6.91564262 3.5625 10.375 C3.71396484 11.35984375 3.86542969 12.3446875 4.02148438 13.359375 C4.16005859 14.30039063 4.29863281 15.24140625 4.44140625 16.2109375 C4.57232666 17.08024902 4.70324707 17.94956055 4.83813477 18.84521484 C5 21 5 21 4 23 C-0.21365034 16.67952449 -0.3482453 7.48727403 0 0 Z " fill="#3D9CB9" transform="translate(169,176)"/>
<path d="M0 0 C2.475 0.99 2.475 0.99 5 2 C4.67 2.99 4.34 3.98 4 5 C4.99 4.67 5.98 4.34 7 4 C7 4.66 7 5.32 7 6 C11.29 6.33 15.58 6.66 20 7 C20 7.33 20 7.66 20 8 C17.39521117 8.0809313 14.79293347 8.14045434 12.1875 8.1875 C11.08051758 8.22520508 11.08051758 8.22520508 9.95117188 8.26367188 C4.49482821 8.33773989 4.49482821 8.33773989 2.03125 6.65625 C0.68793042 4.49879734 0.33785905 2.50015696 0 0 Z " fill="#9AEDDD" transform="translate(300,126)"/>
<path d="M0 0 C1.9375 0.3125 1.9375 0.3125 4 1 C4.33 1.99 4.66 2.98 5 4 C8.63 4.33 12.26 4.66 16 5 C15.67 5.99 15.34 6.98 15 8 C9.05913587 8.52112843 6.04236872 7.94890354 1.25 4.38671875 C0 3 0 3 0 0 Z " fill="#1E7AB2" transform="translate(176,371)"/>
<path d="M0 0 C1.32 0.66 2.64 1.32 4 2 C3.67 4.97 3.34 7.94 3 11 C2.34 10.34 1.68 9.68 1 9 C-1.06874034 8.3574765 -1.06874034 8.3574765 -3 8 C-2.37240135 5.07120629 -1.41377341 2.63904371 0 0 Z " fill="#7BFAE0" transform="translate(171,145)"/>
<path d="M0 0 C2 2 2 2 2 6 C2.66 6 3.32 6 4 6 C7.06677376 8.40008381 8.37172255 11.53106108 10 15 C10.66381004 16.33475782 11.32988433 17.66839675 12 19 C6.19733706 14.58997617 1.89647611 9.78569604 -1 3 C-0.67 2.01 -0.34 1.02 0 0 Z " fill="#3F89B3" transform="translate(146,215)"/>
<path d="M0 0 C3.45669945 1.66587925 6.75102241 3.56317544 10.0625 5.5 C11.10535156 6.1084375 12.14820313 6.716875 13.22265625 7.34375 C15.18006052 8.51103468 17.1037311 9.73582073 19 11 C16.25 11.75 16.25 11.75 13 12 C10.9375 10.1875 10.9375 10.1875 9 8 C7.7625 7.5359375 7.7625 7.5359375 6.5 7.0625 C3.28992737 5.69821913 1.96077886 3.83223614 0 1 C0 0.67 0 0.34 0 0 Z " fill="#6CD7EE" transform="translate(268,183)"/>
<path d="M0 0 C0.33 0.66 0.66 1.32 1 2 C-0.97111192 5.87182698 -2.76299113 9.07127768 -6 12 C-6.33 12.66 -6.66 13.32 -7 14 C-7.66 14 -8.32 14 -9 14 C-8.67 14.99 -8.34 15.98 -8 17 C-9.375 18.5 -9.375 18.5 -11 20 C-11.66 20 -12.32 20 -13 20 C-11.64671201 16.24831052 -9.94336362 13.23963476 -7.625 10 C-7.00753906 9.13632813 -6.39007813 8.27265625 -5.75390625 7.3828125 C-3.90105033 4.86556949 -2.00116356 2.40139627 0 0 Z " fill="#8DF0E4" transform="translate(160,107)"/>
<path d="M0 0 C3.75409842 0.59770082 6.69658253 1.6843096 10.0625 3.4375 C10.89910156 3.86933594 11.73570312 4.30117188 12.59765625 4.74609375 C14.13779415 5.5499706 15.66773491 6.37388377 17.18359375 7.22265625 C17.78300781 7.47917969 18.38242188 7.73570312 19 8 C19.66 7.67 20.32 7.34 21 7 C21 7.66 21 8.32 21 9 C21.66 9 22.32 9 23 9 C23 9.66 23 10.32 23 11 C17.98329793 10.34782873 13.76559213 8.21368849 9.25 6.0625 C8.47011719 5.70220703 7.69023437 5.34191406 6.88671875 4.97070312 C6.14550781 4.62072266 5.40429688 4.27074219 4.640625 3.91015625 C3.96547852 3.59183838 3.29033203 3.27352051 2.59472656 2.94555664 C1 2 1 2 0 0 Z " fill="#5FC4EC" transform="translate(191,254)"/>
<path d="M0 0 C2.31 0.33 4.62 0.66 7 1 C6.85892253 2.45880109 6.71197585 3.91703551 6.5625 5.375 C6.48128906 6.18710937 6.40007812 6.99921875 6.31640625 7.8359375 C6 10 6 10 5 12 C2.65085508 9.65085508 2.26859643 8.04320554 1.375 4.875 C1.11460937 3.96492188 0.85421875 3.05484375 0.5859375 2.1171875 C0.39257812 1.41851562 0.19921875 0.71984375 0 0 Z " fill="#20A2CE" transform="translate(144,336)"/>
<path d="M0 0 C3.07531556 0.33246655 4.61832506 0.63104756 6.875 2.8125 C8 5 8 5 7.6875 7.25 C7.460625 7.8275 7.23375 8.405 7 9 C6.34 9 5.68 9 5 9 C4.67 9.66 4.34 10.32 4 11 C3.32880451 9.5437455 2.66318193 8.08492133 2 6.625 C1.62875 5.81289062 1.2575 5.00078125 0.875 4.1640625 C0 2 0 2 0 0 Z " fill="#51C3F2" transform="translate(312,249)"/>
<path d="M0 0 C0.66 0 1.32 0 2 0 C2.99 5.28 3.98 10.56 5 16 C4.34 16 3.68 16 3 16 C-0.44419134 5.62642369 -0.44419134 5.62642369 0 0 Z " fill="#58BDEB" transform="translate(351,257)"/>
<path d="M0 0 C0.99 0.99 1.98 1.98 3 3 C0.25 9.75 0.25 9.75 -2 12 C-2.33 12.845625 -2.66 13.69125 -3 14.5625 C-4 17 -4 17 -6 18 C-5.30058404 14.85262818 -4.23921302 11.97411124 -3 9 C-2.34 9 -1.68 9 -1 9 C-0.67 6.03 -0.34 3.06 0 0 Z " fill="#6FFDDB" transform="translate(276,77)"/>
<path d="M0 0 C2.475 0.495 2.475 0.495 5 1 C5.33 2.32 5.66 3.64 6 5 C6.639375 5.103125 7.27875 5.20625 7.9375 5.3125 C8.618125 5.539375 9.29875 5.76625 10 6 C10.33 6.99 10.66 7.98 11 9 C9.35 8.67 7.7 8.34 6 8 C6 7.34 6 6.68 6 6 C5.071875 5.9071875 5.071875 5.9071875 4.125 5.8125 C2 5 2 5 0.75 2.4375 C0.5025 1.633125 0.255 0.82875 0 0 Z " fill="#6CFAE5" transform="translate(142,143)"/>
<path d="M0 0 C0.66 0 1.32 0 2 0 C0.33333333 3.33333333 -1.33333333 6.66666667 -3 10 C-3.66 10 -4.32 10 -5 10 C-5.33 11.32 -5.66 12.64 -6 14 C-7 12 -7 12 -6.44140625 9.8359375 C-6.15136719 9.02382812 -5.86132812 8.21171875 -5.5625 7.375 C-5.27503906 6.55773437 -4.98757812 5.74046875 -4.69140625 4.8984375 C-4.46324219 4.27195313 -4.23507813 3.64546875 -4 3 C-3.01 3 -2.02 3 -1 3 C-0.67 2.01 -0.34 1.02 0 0 Z " fill="#79FADC" transform="translate(182,131)"/>
<path d="M0 0 C10.82464455 0.54976303 10.82464455 0.54976303 16 4 C19.69523952 4.71923208 19.69523952 4.71923208 23 5 C23 5.33 23 5.66 23 6 C17.00353362 6.31560349 13.53110213 5.5680117 8 3 C5.34865817 2.2284455 2.6941038 1.61444473 0 1 C0 0.67 0 0.34 0 0 Z " fill="#4BFAE7" transform="translate(218,99)"/>
<path d="M0 0 C0.66 0 1.32 0 2 0 C0.58426179 3.39187279 -1.04230966 5.09697541 -4 7.25 C-5.051875 8.03117187 -5.051875 8.03117187 -6.125 8.828125 C-8 10 -8 10 -10 10 C-8.79618552 7.50638429 -7.54571278 5.31856917 -6 3 C-4.33985384 2.63557767 -2.67293936 2.30027117 -1 2 C-0.67 1.34 -0.34 0.68 0 0 Z " fill="#3175AE" transform="translate(315,367)"/>
<path d="M0 0 C4.17882671 2.56428003 7.12505529 5.01930733 10 9 C8.35 9.66 6.7 10.32 5 11 C4.54625 9.865625 4.0925 8.73125 3.625 7.5625 C2.42904194 3.95278308 2.42904194 3.95278308 0 3 C0 2.01 0 1.02 0 0 Z " fill="#53D8F2" transform="translate(256,174)"/>
<path d="M0 0 C0.33 0.66 0.66 1.32 1 2 C1.66 2.33 2.32 2.66 3 3 C3.81640625 5.546875 3.81640625 5.546875 4.5625 8.75 C4.81128906 9.79671875 5.06007812 10.8434375 5.31640625 11.921875 C5.91315237 14.60893752 6.47464745 17.29818689 7 20 C4.36562124 16.85988091 3.07995273 13.88491259 1.8125 10 C1.46832031 8.96875 1.12414062 7.9375 0.76953125 6.875 C0 4 0 4 0 0 Z " fill="#3C90B2" transform="translate(137,194)"/>
<path d="M0 0 C0.65355469 0.58007812 0.65355469 0.58007812 1.3203125 1.171875 C5.05744652 4.43984501 8.8076016 7.34140589 13 10 C10 11 10 11 8.02734375 10.21484375 C2.33237431 6.73399327 2.33237431 6.73399327 0.5 2.6875 C0.335 1.800625 0.17 0.91375 0 0 Z " fill="#428CB5" transform="translate(186,335)"/>
<path d="M0 0 C1.9630836 0.92751198 3.92034027 1.86736453 5.875 2.8125 C7.51082031 3.59560547 7.51082031 3.59560547 9.1796875 4.39453125 C12 6 12 6 14 9 C11.23723823 8.47731534 8.6739124 7.89130413 6 7 C5.67 6.34 5.34 5.68 5 5 C4.154375 4.505 3.30875 4.01 2.4375 3.5 C1.633125 3.005 0.82875 2.51 0 2 C0 1.34 0 0.68 0 0 Z " fill="#9DEDDE" transform="translate(294,82)"/>
<path d="M0 0 C0 0.33 0 0.66 0 1 C-0.93972656 1.30744141 -0.93972656 1.30744141 -1.8984375 1.62109375 C-2.71570313 1.89050781 -3.53296875 2.15992187 -4.375 2.4375 C-5.18710938 2.70433594 -5.99921875 2.97117187 -6.8359375 3.24609375 C-9.01031799 3.95179729 -9.01031799 3.95179729 -11 5 C-12.67654729 4.72057545 -14.34608154 4.39171753 -16 4 C-16 3.34 -16 2.68 -16 2 C-10.61972975 0.80911014 -5.54708616 -0.2919519 0 0 Z " fill="#31FBF1" transform="translate(230,74)"/>
<path d="M0 0 C-0.8125 2.4375 -0.8125 2.4375 -2 5 C-2.99 5.33 -3.98 5.66 -5 6 C-5.66 5.01 -6.32 4.02 -7 3 C-7.99 2.34 -8.98 1.68 -10 1 C-6.52674819 -0.1577506 -3.63932552 -0.06866652 0 0 Z " fill="#3EB6E9" transform="translate(177,236)"/>
<path d="M0 0 C2.86867231 1.38264837 5.56024032 2.92148553 8.25 4.625 C8.95640625 5.07101563 9.6628125 5.51703125 10.390625 5.9765625 C10.92171875 6.31429687 11.4528125 6.65203125 12 7 C8.06204091 8.22419163 5.83887763 7.48320272 2 6 C2 5.01 2 4.02 2 3 C1.34 3 0.68 3 0 3 C0 2.01 0 1.02 0 0 Z " fill="#21A5BF" transform="translate(157,168)"/>
<path d="M0 0 C4.455 0.99 4.455 0.99 9 2 C8.67 2.99 8.34 3.98 8 5 C5.36 4.67 2.72 4.34 0 4 C0 2.68 0 1.36 0 0 Z " fill="#2A88BF" transform="translate(209,354)"/>
<path d="M0 0 C2.26171875 -0.28125 2.26171875 -0.28125 5 0 C7.01953125 1.96875 7.01953125 1.96875 8.8125 4.5 C9.41707031 5.3353125 10.02164063 6.170625 10.64453125 7.03125 C11.09183594 7.6809375 11.53914062 8.330625 12 9 C11.67 9.66 11.34 10.32 11 11 C10.01 10.67 9.02 10.34 8 10 C7.65657551 8.66923011 7.32380126 7.33568021 7 6 C6.01 5.34 5.02 4.68 4 4 C4 3.01 4 2.02 4 1 C2.68 0.67 1.36 0.34 0 0 Z " fill="#3EA3CB" transform="translate(174,326)"/>
<path d="M0 0 C3.375 0.25 3.375 0.25 7 1 C8.94241961 3.5335908 9 4.78187214 9 8 C5.56247993 6.4722133 2.81046312 4.49818944 0 2 C0 1.34 0 0.68 0 0 Z " fill="#90FADB" transform="translate(289,116)"/>
<path d="M0 0 C5.09210286 3.56320845 9.22660027 7.04741286 13 12 C8.53648705 10.59718164 6.1911921 8.35914958 3 5 C2.01 4.34 1.02 3.68 0 3 C0 2.01 0 1.02 0 0 Z " fill="#6BD3E7" transform="translate(255,171)"/>
<path d="M0 0 C0.66 0.33 1.32 0.66 2 1 C2 2.32 2 3.64 2 5 C2.66 5 3.32 5 4 5 C4.99 7.97 5.98 10.94 7 14 C4.65103113 11.65103113 3.01504222 9.74100674 1.25 7 C0.80140625 6.319375 0.3528125 5.63875 -0.109375 4.9375 C-1 3 -1 3 0 0 Z " fill="#3DA1C6" transform="translate(140,330)"/>
<path d="M0 0 C0.33 0 0.66 0 1 0 C1.02692484 2.29160319 1.04636124 4.58329546 1.0625 6.875 C1.07410156 8.15117187 1.08570313 9.42734375 1.09765625 10.7421875 C1 14 1 14 0 16 C-0.66 16 -1.32 16 -2 16 C-1.34 10.72 -0.68 5.44 0 0 Z " fill="#3987AB" transform="translate(320,289)"/>
<path d="M0 0 C3.35212973 3.08748791 5.85053527 5.51708756 7 10 C6.5390625 12.15234375 6.5390625 12.15234375 6 14 C4.99515796 12.04414675 3.99626195 10.08523763 3 8.125 C2.1646875 6.48917969 2.1646875 6.48917969 1.3125 4.8203125 C0 2 0 2 0 0 Z " fill="#67C2E8" transform="translate(261,251)"/>
<path d="M0 0 C0.74958984 0.05220703 1.49917969 0.10441406 2.27148438 0.15820312 C4.11887082 0.28763784 5.96574371 0.42436518 7.8125 0.5625 C7.8125 0.8925 7.8125 1.2225 7.8125 1.5625 C1.2125 1.8925 -5.3875 2.2225 -12.1875 2.5625 C-9.91174871 -1.98900257 -4.32262849 -0.32844426 0 0 Z " fill="#1A82B7" transform="translate(182.1875,233.4375)"/>
<path d="M0 0 C2 0 2 0 3.5625 1.3125 C5 3 5 3 6 6 C7.49985609 7.66710346 7.49985609 7.66710346 9 9 C8.67 9.66 8.34 10.32 8 11 C2.19794344 5.35475578 2.19794344 5.35475578 0 2 C0 1.34 0 0.68 0 0 Z " fill="#4E93B4" transform="translate(225,196)"/>
<path d="M0 0 C1.32 0.33 2.64 0.66 4 1 C3.319375 1.61875 3.319375 1.61875 2.625 2.25 C0.94049626 4.06408095 0.00734029 5.75285627 -1 8 C-1.99 8 -2.98 8 -4 8 C-3.67 6.02 -3.34 4.04 -3 2 C-2.01 2.33 -1.02 2.66 0 3 C0 2.01 0 1.02 0 0 Z " fill="#7AEEDF" transform="translate(144,135)"/>
<path d="M0 0 C5.66153846 1.47692308 5.66153846 1.47692308 7.375 4.125 C7.684375 5.053125 7.684375 5.053125 8 6 C7.01 6.495 7.01 6.495 6 7 C3.875 6.0625 3.875 6.0625 2 5 C2 4.34 2 3.68 2 3 C1.34 2.67 0.68 2.34 0 2 C0 1.34 0 0.68 0 0 Z " fill="#67D5F1" transform="translate(312,206)"/>
<path d="M0 0 C0.66 0.66 1.32 1.32 2 2 C-1 5 -4 8 -7 11 C-7.99 10.67 -8.98 10.34 -10 10 C-9.01 9.67 -8.02 9.34 -7 9 C-7 8.34 -7 7.68 -7 7 C-6.34 7 -5.68 7 -5 7 C-4.67 6.01 -4.34 5.02 -4 4 C-2.70644173 2.62804426 -1.37701298 1.28817344 0 0 Z " fill="#72FCDD" transform="translate(269,95)"/>
<path d="M0 0 C0.33 0.66 0.66 1.32 1 2 C1.99 1.67 2.98 1.34 4 1 C4.33 1.66 4.66 2.32 5 3 C3.75 4.5625 3.75 4.5625 2 6 C-0.1875 5.6875 -0.1875 5.6875 -2 5 C-1.34 3.35 -0.68 1.7 0 0 Z " fill="#1886BC" transform="translate(182,370)"/>
<path d="M0 0 C0.66 0 1.32 0 2 0 C2.66 1.65 3.32 3.3 4 5 C3.01 5.33 2.02 5.66 1 6 C0.67 8.31 0.34 10.62 0 13 C-0.33 13 -0.66 13 -1 13 C-1.02696365 11.20841511 -1.04637917 9.41671527 -1.0625 7.625 C-1.07410156 6.62726563 -1.08570313 5.62953125 -1.09765625 4.6015625 C-1 2 -1 2 0 0 Z " fill="#1E86B9" transform="translate(186,339)"/>
<path d="M0 0 C2.31 0.66 4.62 1.32 7 2 C7 3.65 7 5.3 7 7 C4.36 5.35 1.72 3.7 -1 2 C-0.67 1.34 -0.34 0.68 0 0 Z " fill="#56B6E5" transform="translate(291,225)"/>
<path d="M0 0 C0.66 1.32 1.32 2.64 2 4 C-2.625 8.875 -2.625 8.875 -6 10 C-6 9.34 -6 8.68 -6 8 C-5.34 8 -4.68 8 -4 8 C-3.34 6.35 -2.68 4.7 -2 3 C-1.34 3 -0.68 3 0 3 C0 2.01 0 1.02 0 0 Z " fill="#6FFCE2" transform="translate(157,113)"/>
<path d="M0 0 C0 0.66 0 1.32 0 2 C-0.78375 2.45375 -1.5675 2.9075 -2.375 3.375 C-5.10656812 4.74819746 -5.10656812 4.74819746 -6.0625 7.125 C-7 9 -7 9 -9.125 9.75 C-10.053125 9.87375 -10.053125 9.87375 -11 10 C-5.90566038 0 -5.90566038 0 0 0 Z " fill="#5DF4ED" transform="translate(188,86)"/>
<path d="M0 0 C0.66 0 1.32 0 2 0 C2 0.66 2 1.32 2 2 C2.99 2 3.98 2 5 2 C5.33 2.99 5.66 3.98 6 5 C6.515625 5.515625 7.03125 6.03125 7.5625 6.5625 C8.036875 7.036875 8.51125 7.51125 9 8 C9 8.66 9 9.32 9 10 C8.34 10 7.68 10 7 10 C7 9.34 7 8.68 7 8 C6.34 8 5.68 8 5 8 C3.7109375 6.50390625 3.7109375 6.50390625 2.375 4.5625 C1.92898437 3.92441406 1.48296875 3.28632813 1.0234375 2.62890625 C0 1 0 1 0 0 Z " fill="#37A4CD" transform="translate(150,348)"/>
<path d="M0 0 C1.9375 0.3125 1.9375 0.3125 4 1 C5.41687119 5.25061356 4.19320039 7.71851625 3 12 C2.67 12 2.34 12 2 12 C1.93941406 11.30132812 1.87882813 10.60265625 1.81640625 9.8828125 C1.73261719 8.97273437 1.64882812 8.06265625 1.5625 7.125 C1.48128906 6.22007812 1.40007812 5.31515625 1.31640625 4.3828125 C1.13010715 1.98889139 1.13010715 1.98889139 0 0 Z " fill="#65E3DE" transform="translate(169,153)"/>
<path d="M0 0 C3.29456702 1.09818901 4.45501927 1.91003854 6 5 C6.66 5 7.32 5 8 5 C7.67 5.66 7.34 6.32 7 7 C2.25 6.25 2.25 6.25 0 4 C0 2.68 0 1.36 0 0 Z " fill="#8FFCDA" transform="translate(328,113)"/>
<path d="M0 0 C1.65 0.33 3.3 0.66 5 1 C3.02 3.97 3.02 3.97 1 7 C0.34 6.67 -0.32 6.34 -1 6 C-0.67 4.02 -0.34 2.04 0 0 Z " fill="#2B86BA" transform="translate(194,345)"/>
<path d="M0 0 C1.79068573 2.6860286 2.66055791 4.6626589 3.625 7.6875 C3.88539063 8.49574219 4.14578125 9.30398437 4.4140625 10.13671875 C4.60742188 10.75160156 4.80078125 11.36648437 5 12 C4.01 11.67 3.02 11.34 2 11 C0.37676246 7.24092359 -0.23994929 4.07913787 0 0 Z " fill="#4595B4" transform="translate(173,192)"/>
<path d="M0 0 C0.66 0 1.32 0 2 0 C1.67 3.3 1.34 6.6 1 10 C0.34 10 -0.32 10 -1 10 C-1.02689216 8.52093108 -1.04634621 7.04172517 -1.0625 5.5625 C-1.07410156 4.73878906 -1.08570313 3.91507813 -1.09765625 3.06640625 C-1 1 -1 1 0 0 Z " fill="#60DFE1" transform="translate(170,166)"/>
<path d="M0 0 C0.99 0.33 1.98 0.66 3 1 C1.68 4.63 0.36 8.26 -1 12 C-1.33 12 -1.66 12 -2 12 C-1 3.42857143 -1 3.42857143 0 0 Z " fill="#46A3B6" transform="translate(139,143)"/>
<path d="M0 0 C0.33 0 0.66 0 1 0 C1.02705729 1.77074917 1.04642195 3.54161711 1.0625 5.3125 C1.07410156 6.29863281 1.08570313 7.28476562 1.09765625 8.30078125 C1 11 1 11 0 14 C-0.66 13.67 -1.32 13.34 -2 13 C-1.855625 12.34 -1.71125 11.68 -1.5625 11 C-0.87700084 7.34400449 -0.43824485 3.69377805 0 0 Z " fill="#4DCCF9" transform="translate(354,286)"/>
<path d="M0 0 C0.66 0 1.32 0 2 0 C2 0.99 2 1.98 2 3 C-2.29 3 -6.58 3 -11 3 C-6.97030584 0.98515292 -5.32390204 0.90391329 -1 1 C-0.67 0.67 -0.34 0.34 0 0 Z " fill="#55C9F9" transform="translate(254,285)"/>
<path d="M0 0 C2.3431213 0.25561323 4.67843403 0.59270772 7 1 C7.33 1.66 7.66 2.32 8 3 C4.625 3.625 4.625 3.625 1 4 C0.34 3.34 -0.32 2.68 -1 2 C-0.67 1.34 -0.34 0.68 0 0 Z " fill="#40C5F9" transform="translate(214,263)"/>
<path d="M0 0 C2.31966166 2.84685749 3.91581154 5.4763875 5 9 C4.67 9.99 4.34 10.98 4 12 C3.67 10.68 3.34 9.36 3 8 C2.34 8 1.68 8 1 8 C0.67 5.36 0.34 2.72 0 0 Z " fill="#65B6E1" transform="translate(346,241)"/>
<path d="M0 0 C4.29 0.66 8.58 1.32 13 2 C13 2.33 13 2.66 13 3 C11.20906809 3.08086147 9.41710372 3.13912702 7.625 3.1875 C6.12839844 3.23970703 6.12839844 3.23970703 4.6015625 3.29296875 C3.74304688 3.19628906 2.88453125 3.09960938 2 3 C1.34 2.01 0.68 1.02 0 0 Z " fill="#56B9DE" transform="translate(223,238)"/>
<path d="M0 0 C0.99 0.33 1.98 0.66 3 1 C2.34 4.3 1.68 7.6 1 11 C0.67 11 0.34 11 0 11 C0 7.37 0 3.74 0 0 Z " fill="#27A4C6" transform="translate(136,170)"/>
<path d="M0 0 C0.66 0 1.32 0 2 0 C1.649375 0.7425 1.29875 1.485 0.9375 2.25 C-0.04509293 5.1322726 -0.0326802 6.21176345 1 9 C0.01 9.33 -0.98 9.66 -2 10 C-1.85950482 8.52031676 -1.71245174 7.04125484 -1.5625 5.5625 C-1.48128906 4.73878906 -1.40007812 3.91507813 -1.31640625 3.06640625 C-1 1 -1 1 0 0 Z " fill="#31A7C7" transform="translate(139,151)"/>
<path d="M0 0 C0.33 0.66 0.66 1.32 1 2 C3.31 2 5.62 2 8 2 C8 2.33 8 2.66 8 3 C6.7625 3.12375 5.525 3.2475 4.25 3.375 C1.1237803 3.75746305 -1.28879237 4.30549523 -4 6 C-4.33 5.34 -4.66 4.68 -5 4 C-4.360625 3.71125 -3.72125 3.4225 -3.0625 3.125 C-0.84793921 2.17176549 -0.84793921 2.17176549 0 0 Z " fill="#22A9D5" transform="translate(145,325)"/>
<path d="M0 0 C0.99 0 1.98 0 3 0 C3.33 1.32 3.66 2.64 4 4 C4.66 4 5.32 4 6 4 C5.67 4.99 5.34 5.98 5 7 C4.01 6.67 3.02 6.34 2 6 C0.8125 2.9375 0.8125 2.9375 0 0 Z " fill="#52C6F5" transform="translate(346,249)"/>
<path d="M0 0 C0.33 0.66 0.66 1.32 1 2 C0.01 3.485 0.01 3.485 -1 5 C-1 4.34 -1 3.68 -1 3 C-2.98 3 -4.96 3 -7 3 C-7 2.34 -7 1.68 -7 1 C-4.53721199 -0.231394 -2.7204945 -0.07159196 0 0 Z " fill="#38B7E2" transform="translate(321,212)"/>
<path d="M0 0 C0.99 0.33 1.98 0.66 3 1 C3 2.65 3 4.3 3 6 C1.35 6 -0.3 6 -2 6 C-1.125 1.125 -1.125 1.125 0 0 Z " fill="#52FAE7" transform="translate(173,97)"/>
<path d="M0 0 C1.62723299 0.45034123 3.25173664 0.91055354 4.875 1.375 C5.77992188 1.63023438 6.68484375 1.88546875 7.6171875 2.1484375 C10 3 10 3 12 5 C4.61538462 4.50769231 4.61538462 4.50769231 1.5 1.9375 C1.005 1.298125 0.51 0.65875 0 0 Z " fill="#9EF1E3" transform="translate(278,76)"/>
<path d="M0 0 C0.99 0.66 1.98 1.32 3 2 C1.02 4.64 -0.96 7.28 -3 10 C-3 6.13304322 -1.58090029 3.4911548 0 0 Z " fill="#4A8DB4" transform="translate(340,337)"/>
<path d="M0 0 C1.32 0 2.64 0 4 0 C6.29013653 3.4352048 6.17842973 4.985331 6 9 C5.67 9 5.34 9 5 9 C4.9175 8.21625 4.835 7.4325 4.75 6.625 C4.27193661 3.85250896 4.27193661 3.85250896 1.9375 2.6875 C1.298125 2.460625 0.65875 2.23375 0 2 C0 1.34 0 0.68 0 0 Z " fill="#4FC9F8" transform="translate(257,251)"/>
<path d="M0 0 C4.81430721 -0.56638908 7.20307814 1.17438373 11 4 C10.01 4.495 10.01 4.495 9 5 C6.8359375 4.22265625 6.8359375 4.22265625 4.375 3.0625 C3.55773437 2.68222656 2.74046875 2.30195313 1.8984375 1.91015625 C1.27195312 1.60980469 0.64546875 1.30945313 0 1 C0 0.67 0 0.34 0 0 Z " fill="#58A2C9" transform="translate(273,217)"/>
<path d="M0 0 C1.46067199 0.45082469 2.91848032 0.91093537 4.375 1.375 C5.18710937 1.63023437 5.99921875 1.88546875 6.8359375 2.1484375 C9 3 9 3 11 5 C3.49230769 4.50769231 3.49230769 4.50769231 1 1.9375 C0.67 1.298125 0.34 0.65875 0 0 Z " fill="#6BD3E8" transform="translate(293,197)"/>
<path d="M0 0 C0.66 0 1.32 0 2 0 C3.05404945 3.98196457 2.84098656 6.98195309 2 11 C-0.32590854 7.36576791 -0.16265833 4.22911669 0 0 Z " fill="#3EA9C9" transform="translate(169,176)"/>
<path d="M0 0 C0.66 0.33 1.32 0.66 2 1 C-0.31 3.31 -2.62 5.62 -5 8 C-5.33 7.34 -5.66 6.68 -6 6 C-2.25 1.125 -2.25 1.125 0 0 Z " fill="#8DEEE0" transform="translate(193,122)"/>
<path d="M0 0 C1.32 0 2.64 0 4 0 C4.33 2.31 4.66 4.62 5 7 C4.01 6.67 3.02 6.34 2 6 C2 4.68 2 3.36 2 2 C1.34 2 0.68 2 0 2 C0 1.34 0 0.68 0 0 Z " fill="#1AA2D1" transform="translate(156,352)"/>
<path d="M0 0 C2.31 0 4.62 0 7 0 C7.33 0.66 7.66 1.32 8 2 C5.69 2.66 3.38 3.32 1 4 C0.67 2.68 0.34 1.36 0 0 Z " fill="#4BC7F6" transform="translate(243,244)"/>
<path d="M0 0 C0.66 0 1.32 0 2 0 C2.33 2.64 2.66 5.28 3 8 C2.01 8.495 2.01 8.495 1 9 C0.45627049 5.94152152 0 3.11227195 0 0 Z " fill="#289EC7" transform="translate(168,183)"/>
<path d="M0 0 C0.99 0.66 1.98 1.32 3 2 C1.37660195 3.70884005 -0.29319053 5.37446717 -2 7 C-2.66 7 -3.32 7 -4 7 C-4 4 -4 4 -2 1.8125 C-1.34 1.214375 -0.68 0.61625 0 0 Z " fill="#60FBEB" transform="translate(171,98)"/>
<path d="M0 0 C1.875 0.1875 1.875 0.1875 4 1 C5.25 3.5625 5.25 3.5625 6 6 C3.5625 5.25 3.5625 5.25 1 4 C0.1875 1.875 0.1875 1.875 0 0 Z " fill="#2A83B2" transform="translate(176,371)"/>
<path d="M0 0 C1.65 0.33 3.3 0.66 5 1 C3.8125 2.5625 3.8125 2.5625 2 4 C-0.6875 3.6875 -0.6875 3.6875 -3 3 C-2.01 2.67 -1.02 2.34 0 2 C0 1.34 0 0.68 0 0 Z " fill="#3AB2E5" transform="translate(299,224)"/>
<path d="M0 0 C0.66 0.66 1.32 1.32 2 2 C1.01 3.98 0.02 5.96 -1 8 C-1.66 6.68 -2.32 5.36 -3 4 C-2.01 2.68 -1.02 1.36 0 0 Z " fill="#73FBE0" transform="translate(188,121)"/>
<path d="" fill="#FFFFFF" transform="translate(0,0)"/>
<path d="" fill="#FFFFFF" transform="translate(0,0)"/>
<path d="" fill="#000000" transform="translate(0,0)"/>
<path d="" fill="#000000" transform="translate(0,0)"/>
<path d="" fill="#000000" transform="translate(0,0)"/>
<path d="" fill="#000000" transform="translate(0,0)"/>
<path d="" fill="#000000" transform="translate(0,0)"/>
<path d="" fill="#000000" transform="translate(0,0)"/>
<path d="" fill="#000000" transform="translate(0,0)"/>
<path d="" fill="#000000" transform="translate(0,0)"/>
<path d="" fill="#000000" transform="translate(0,0)"/>
<path d="" fill="#000000" transform="translate(0,0)"/>
<path d="" fill="#000000" transform="translate(0,0)"/>
<path d="" fill="#000000" transform="translate(0,0)"/>
<path d="" fill="#000000" transform="translate(0,0)"/>
<path d="" fill="#000000" transform="translate(0,0)"/>
<path d="" fill="#000000" transform="translate(0,0)"/>
<path d="" fill="#000000" transform="translate(0,0)"/>
<path d="" fill="#000000" transform="translate(0,0)"/>
<path d="" fill="#000000" transform="translate(0,0)"/>
<path d="" fill="#000000" transform="translate(0,0)"/>
<path d="" fill="#000000" transform="translate(0,0)"/>
<path d="" fill="#000000" transform="translate(0,0)"/>
<path d="" fill="#000000" transform="translate(0,0)"/>
<path d="" fill="#000000" transform="translate(0,0)"/>
<path d="" fill="#000000" transform="translate(0,0)"/>
<path d="" fill="#000000" transform="translate(0,0)"/>
<path d="" fill="#000000" transform="translate(0,0)"/>
<path d="" fill="#000000" transform="translate(0,0)"/>
<path d="" fill="#000000" transform="translate(0,0)"/>
<path d="" fill="#000000" transform="translate(0,0)"/>
<path d="" fill="#000000" transform="translate(0,0)"/>
<path d="" fill="#000000" transform="translate(0,0)"/>
<path d="" fill="#000000" transform="translate(0,0)"/>
<path d="" fill="#000000" transform="translate(0,0)"/>
<path d="" fill="#000000" transform="translate(0,0)"/>
<path d="" fill="#000000" transform="translate(0,0)"/>
<path d="" fill="#000000" transform="translate(0,0)"/>
<path d="" fill="#000000" transform="translate(0,0)"/>
<path d="" fill="#000000" transform="translate(0,0)"/>
<path d="" fill="#000000" transform="translate(0,0)"/>
<path d="" fill="#000000" transform="translate(0,0)"/>
<path d="" fill="#000000" transform="translate(0,0)"/>
<path d="" fill="#000000" transform="translate(0,0)"/>
<path d="" fill="#000000" transform="translate(0,0)"/>
<path d="" fill="#000000" transform="translate(0,0)"/>
<path d="" fill="#000000" transform="translate(0,0)"/>
<path d="" fill="#000000" transform="translate(0,0)"/>
<path d="" fill="#000000" transform="translate(0,0)"/>
<path d="" fill="#000000" transform="translate(0,0)"/>
<path d="" fill="#000000" transform="translate(0,0)"/>
<path d="" fill="#000000" transform="translate(0,0)"/>
<path d="" fill="#000000" transform="translate(0,0)"/>
<path d="" fill="#000000" transform="translate(0,0)"/>
<path d="" fill="#000000" transform="translate(0,0)"/>
<path d="" fill="#000000" transform="translate(0,0)"/>
<path d="" fill="#000000" transform="translate(0,0)"/>
<path d="" fill="#000000" transform="translate(0,0)"/>
<path d="" fill="#000000" transform="translate(0,0)"/>
<path d="" fill="#000000" transform="translate(0,0)"/>
<path d="" fill="#000000" transform="translate(0,0)"/>
<path d="" fill="#000000" transform="translate(0,0)"/>
<path d="" fill="#000000" transform="translate(0,0)"/>
<path d="" fill="#000000" transform="translate(0,0)"/>
<path d="" fill="#000000" transform="translate(0,0)"/>
<path d="" fill="#000000" transform="translate(0,0)"/>
<path d="" fill="#000000" transform="translate(0,0)"/>
<path d="" fill="#000000" transform="translate(0,0)"/>
<path d="" fill="#000000" transform="translate(0,0)"/>
<path d="" fill="#000000" transform="translate(0,0)"/>
<path d="" fill="#000000" transform="translate(0,0)"/>
</svg>
